<?xml version="1.0" encoding="UTF-8"?>
<svg id="_レイヤー_2" data-name="レイヤー 2" xmlns="http://www.w3.org/2000/svg" viewBox="0 0 283.46 116.64">
  <defs>
    <style>
      .cls-1 {
        fill: #0052a5;
      }

      .cls-2 {
        fill: #595757;
      }

      .cls-3 {
        fill: #e6001b;
      }
    </style>
  </defs>
  <g id="_レイヤー_1-2" data-name="レイヤー 1">
    <g>
      <g>
        <path class="cls-2" d="M31.95,79.62c-.37-.27-.85-.41-1.43-.41-.24,0-.47.02-.7.07-.23.05-.43.13-.61.24-.18.11-.32.26-.42.44s-.16.42-.16.69c0,.26.08.47.23.63s.36.29.61.4.55.19.87.25c.32.07.65.14.99.22.33.08.66.17.99.28.32.11.61.25.87.43.26.18.46.41.61.68s.23.62.23,1.04c0,.45-.1.83-.3,1.15-.2.32-.46.58-.77.78s-.67.35-1.06.44c-.39.09-.78.14-1.16.14-.47,0-.92-.06-1.34-.18-.42-.12-.79-.3-1.11-.54-.32-.24-.57-.55-.76-.92-.18-.37-.28-.82-.28-1.33h1.06c0,.35.07.66.21.91s.32.47.54.63c.22.17.49.29.79.37.3.08.61.12.92.12.25,0,.51-.02.76-.07.26-.05.49-.13.69-.24.2-.11.37-.27.5-.47.13-.2.19-.45.19-.76,0-.29-.08-.53-.23-.71-.15-.18-.36-.33-.61-.44s-.55-.21-.87-.28c-.32-.07-.65-.14-.99-.22-.33-.07-.66-.16-.99-.26-.32-.1-.61-.23-.87-.39-.26-.16-.46-.37-.61-.63s-.23-.58-.23-.96c0-.43.09-.79.26-1.1.17-.31.4-.57.69-.77.29-.2.61-.35.98-.45.37-.1.74-.15,1.13-.15.43,0,.83.05,1.2.15.37.1.69.26.97.48.28.22.5.5.66.83.16.33.25.73.27,1.2h-1.06c-.06-.61-.28-1.04-.66-1.32Z"/>
        <path class="cls-2" d="M39.77,86.9v-.97h-.02c-.21.38-.48.66-.81.83-.33.18-.72.27-1.17.27-.4,0-.74-.05-1-.16-.27-.11-.48-.26-.65-.45-.17-.2-.28-.43-.35-.7-.07-.27-.1-.57-.1-.9v-4.01h1v4.13c0,.38.11.68.33.9.22.22.52.33.91.33.31,0,.57-.05.8-.14.22-.09.41-.23.56-.4.15-.17.26-.38.34-.61s.11-.49.11-.76v-3.45h1v6.1h-.94Z"/>
        <path class="cls-2" d="M43.58,80.8v1.29h.02c.24-.5.54-.86.9-1.1.35-.24.8-.35,1.35-.33v1.06c-.4,0-.74.06-1.03.17-.28.11-.51.27-.68.48-.17.21-.3.47-.38.77-.08.3-.12.65-.12,1.04v2.72h-1v-6.1h.94Z"/>
        <path class="cls-2" d="M48.73,86.9l-2.27-6.1h1.12l1.71,5.09h.02l1.66-5.09h1.05l-2.23,6.1h-1.07Z"/>
        <path class="cls-2" d="M57.73,86.51c-.46.35-1.03.52-1.72.52-.49,0-.91-.08-1.27-.24-.36-.16-.66-.38-.9-.66-.24-.28-.43-.62-.55-1.02-.12-.39-.19-.82-.21-1.29,0-.46.07-.89.21-1.28.14-.39.34-.72.6-1,.26-.28.56-.5.91-.66s.73-.24,1.15-.24c.54,0,.99.11,1.35.34.36.22.65.51.86.86.22.35.37.72.45,1.13.08.41.12.8.1,1.17h-4.57c0,.27.02.52.09.76.07.24.18.45.34.64.16.19.36.33.6.44s.53.17.86.17c.43,0,.77-.1,1.04-.3.27-.2.45-.5.54-.9h.99c-.13.68-.43,1.2-.89,1.55ZM57.48,82.59c-.09-.21-.21-.4-.37-.55s-.33-.28-.54-.37c-.21-.09-.44-.14-.69-.14s-.49.05-.7.14c-.21.09-.39.21-.54.37-.15.16-.27.34-.35.55-.09.21-.14.43-.15.67h3.51c-.02-.24-.07-.46-.16-.67Z"/>
        <path class="cls-2" d="M62.59,87.72c-.12.3-.23.55-.35.76s-.24.37-.38.5c-.14.13-.29.22-.46.28-.17.06-.36.09-.58.09-.12,0-.24,0-.35-.02-.12-.02-.23-.04-.34-.08v-.92c.09.04.19.07.3.1.11.03.21.04.29.04.2,0,.38-.05.51-.15.14-.1.24-.24.31-.42l.41-1.03-2.42-6.07h1.13l1.78,4.99h.02l1.71-4.99h1.06l-2.66,6.92Z"/>
        <path class="cls-2" d="M66.6,79.7v-1.23h1v1.23h-1ZM67.61,80.8v6.1h-1v-6.1h1Z"/>
        <path class="cls-2" d="M70.56,80.8v.97h.02c.42-.74,1.08-1.11,1.98-1.11.4,0,.74.06,1,.17.27.11.48.26.65.46.17.2.28.43.35.7s.1.57.1.9v4.01h-1v-4.13c0-.38-.11-.68-.33-.9-.22-.22-.52-.33-.91-.33-.31,0-.57.05-.8.14-.22.09-.41.23-.56.4-.15.17-.26.38-.34.61-.07.23-.11.49-.11.76v3.45h-1v-6.1h.94Z"/>
        <path class="cls-2" d="M81.21,88.63c-.46.5-1.17.74-2.15.74-.28,0-.57-.03-.87-.09s-.56-.17-.8-.31c-.24-.14-.44-.33-.6-.55s-.24-.51-.26-.84h1c0,.18.07.33.17.46.11.13.24.23.39.31.15.08.32.14.5.17.18.04.35.05.52.05.33,0,.61-.06.84-.17.23-.11.42-.27.57-.47.15-.2.26-.44.32-.73.07-.28.1-.59.1-.93v-.4h-.02c-.17.38-.44.66-.79.83-.35.18-.72.27-1.12.27-.46,0-.85-.08-1.19-.25-.34-.17-.62-.39-.85-.67-.23-.28-.4-.61-.51-.98-.11-.37-.17-.77-.17-1.19,0-.36.05-.73.14-1.12s.25-.73.47-1.04c.22-.31.51-.57.87-.77s.81-.3,1.33-.3c.39,0,.74.08,1.06.25.32.17.57.42.76.76h.01v-.87h.94v5.58c0,1-.23,1.75-.68,2.24ZM79.93,85.88c.23-.14.42-.32.56-.54.14-.22.25-.48.31-.76.07-.28.1-.57.1-.85,0-.27-.03-.53-.09-.79s-.16-.49-.3-.7c-.14-.21-.32-.38-.54-.5-.22-.13-.49-.19-.8-.19s-.6.06-.83.18c-.23.12-.42.29-.56.49s-.25.44-.32.71c-.07.27-.1.55-.1.84,0,.28.03.55.08.83.06.28.15.53.28.75.13.22.31.41.53.54.22.14.5.21.83.21s.61-.07.84-.21Z"/>
        <path class="cls-2" d="M90.2,80.8v.89h-1.22v3.79c0,.12,0,.21.03.28.02.07.06.13.11.17.06.04.13.06.23.08s.23.02.38.02h.46v.89h-.77c-.26,0-.48-.02-.67-.05-.19-.04-.33-.1-.45-.19s-.2-.23-.25-.4c-.06-.17-.08-.4-.08-.68v-3.88h-1.04v-.89h1.04v-1.83h1v1.83h1.22Z"/>
        <path class="cls-2" d="M92.76,78.47v3.22h.02c.08-.19.19-.35.33-.48.14-.13.3-.24.48-.32.18-.08.36-.14.55-.18.19-.04.38-.06.56-.06.4,0,.74.06,1,.17.27.11.48.26.65.46.17.2.28.43.35.7s.1.57.1.9v4.01h-1v-4.13c0-.38-.11-.68-.33-.9-.22-.22-.52-.33-.91-.33-.31,0-.57.05-.8.14-.22.09-.41.23-.56.4-.15.17-.26.38-.34.61-.07.23-.11.49-.11.76v3.45h-1v-8.43h1Z"/>
        <path class="cls-2" d="M103.09,86.51c-.46.35-1.03.52-1.72.52-.49,0-.91-.08-1.27-.24-.36-.16-.66-.38-.9-.66-.24-.28-.43-.62-.55-1.02-.12-.39-.19-.82-.21-1.29,0-.46.07-.89.21-1.28.14-.39.34-.72.6-1,.26-.28.56-.5.91-.66s.73-.24,1.15-.24c.54,0,.99.11,1.35.34.36.22.65.51.86.86.22.35.37.72.45,1.13.08.41.12.8.1,1.17h-4.57c0,.27.02.52.09.76.07.24.18.45.34.64.16.19.36.33.6.44s.53.17.86.17c.43,0,.77-.1,1.04-.3.27-.2.45-.5.54-.9h.99c-.13.68-.43,1.2-.89,1.55ZM102.85,82.59c-.09-.21-.21-.4-.37-.55s-.33-.28-.54-.37c-.21-.09-.44-.14-.69-.14s-.49.05-.7.14c-.21.09-.39.21-.54.37-.15.16-.27.34-.35.55-.09.21-.14.43-.15.67h3.51c-.02-.24-.07-.46-.16-.67Z"/>
        <path class="cls-2" d="M115.27,78.47v.94h-4.7v2.68h4.38v.94h-4.38v2.92h4.73v.94h-5.86v-8.43h5.82Z"/>
        <path class="cls-2" d="M122.36,86.88c-.17.1-.41.15-.72.15-.26,0-.47-.07-.62-.22s-.23-.38-.23-.71c-.28.33-.6.57-.96.71s-.76.22-1.19.22c-.28,0-.54-.03-.79-.09-.25-.06-.46-.16-.64-.3-.18-.13-.32-.31-.43-.53s-.16-.48-.16-.79c0-.35.06-.63.18-.85.12-.22.27-.4.47-.54.19-.14.41-.24.66-.31.25-.07.5-.13.76-.18.28-.06.54-.1.79-.12.25-.03.47-.07.66-.12.19-.05.34-.13.45-.22.11-.1.17-.24.17-.43,0-.22-.04-.4-.12-.53-.08-.13-.19-.24-.32-.31-.13-.07-.28-.12-.44-.14-.16-.02-.32-.04-.48-.04-.42,0-.78.08-1.06.24-.28.16-.44.47-.46.92h-1c.02-.38.09-.7.24-.96.14-.26.33-.47.57-.63.24-.16.51-.28.81-.35.3-.07.63-.11.97-.11.28,0,.55.02.82.06.27.04.52.12.74.24.22.12.4.29.53.51.13.22.2.51.2.86v3.13c0,.24.01.41.04.52.03.11.12.17.28.17.09,0,.19-.02.31-.05v.78ZM120.73,83.75c-.13.09-.29.16-.5.21-.21.04-.42.08-.64.11-.22.03-.45.06-.68.09-.23.04-.43.09-.61.17-.18.08-.33.19-.44.33-.11.15-.17.34-.17.59,0,.16.03.3.1.42.07.11.15.21.26.28.11.07.23.12.37.15.14.03.29.05.45.05.33,0,.61-.05.85-.14s.43-.2.58-.34c.15-.14.26-.29.33-.45.07-.16.11-.31.11-.45v-1.02Z"/>
        <path class="cls-2" d="M124.65,80.8v1.29h.02c.24-.5.54-.86.9-1.1.35-.24.8-.35,1.35-.33v1.06c-.4,0-.74.06-1.03.17-.28.11-.51.27-.68.48-.17.21-.3.47-.38.77-.08.3-.12.65-.12,1.04v2.72h-1v-6.1h.94Z"/>
        <path class="cls-2" d="M130.73,80.8v.89h-1.22v3.79c0,.12,0,.21.03.28.02.07.06.13.11.17.06.04.13.06.23.08s.23.02.38.02h.46v.89h-.77c-.26,0-.48-.02-.67-.05-.19-.04-.33-.1-.45-.19s-.2-.23-.25-.4c-.06-.17-.08-.4-.08-.68v-3.88h-1.04v-.89h1.04v-1.83h1v1.83h1.22Z"/>
        <path class="cls-2" d="M133.29,78.47v3.22h.02c.08-.19.19-.35.33-.48.14-.13.3-.24.48-.32.18-.08.36-.14.55-.18.19-.04.38-.06.56-.06.4,0,.74.06,1,.17.27.11.48.26.65.46.17.2.28.43.35.7s.1.57.1.9v4.01h-1v-4.13c0-.38-.11-.68-.33-.9-.22-.22-.52-.33-.91-.33-.31,0-.57.05-.8.14-.22.09-.41.23-.56.4-.15.17-.26.38-.34.61-.07.23-.11.49-.11.76v3.45h-1v-8.43h1Z"/>
        <path class="cls-2" d="M145.64,80.8v.89h-1.22v3.79c0,.12,0,.21.03.28.02.07.06.13.11.17.06.04.13.06.23.08s.23.02.38.02h.46v.89h-.77c-.26,0-.48-.02-.67-.05-.19-.04-.33-.1-.45-.19s-.2-.23-.25-.4c-.06-.17-.08-.4-.08-.68v-3.88h-1.04v-.89h1.04v-1.83h1v1.83h1.22Z"/>
        <path class="cls-2" d="M147.06,82.6c.13-.39.31-.73.57-1.02.25-.29.56-.51.93-.68s.8-.25,1.28-.25.92.08,1.28.25.67.39.93.68c.25.29.44.63.57,1.02.13.39.19.81.19,1.26s-.06.87-.19,1.25c-.13.39-.31.72-.57,1.01-.25.29-.56.51-.93.67-.37.16-.79.24-1.28.24s-.91-.08-1.28-.24c-.37-.16-.68-.39-.93-.67-.25-.29-.44-.62-.57-1.01-.13-.39-.19-.8-.19-1.25s.06-.87.19-1.26ZM148.08,84.84c.1.29.23.53.41.72.17.19.38.34.61.44.23.1.48.15.74.15s.51-.05.74-.15c.23-.1.43-.25.61-.44.17-.19.31-.43.41-.72.1-.29.15-.62.15-.99s-.05-.7-.15-.99-.23-.53-.41-.73c-.17-.2-.38-.35-.61-.45-.23-.1-.48-.15-.74-.15s-.51.05-.74.15c-.23.1-.43.25-.61.45-.17.2-.31.44-.41.73s-.15.62-.15.99.05.7.15.99Z"/>
        <path class="cls-2" d="M163.42,79.67c-.43-.3-.94-.45-1.53-.45-.5,0-.94.09-1.29.28-.36.19-.65.44-.89.76s-.4.68-.51,1.09c-.11.41-.17.83-.17,1.28,0,.48.06.93.17,1.36.11.43.28.8.51,1.12.23.32.53.57.89.76s.79.28,1.3.28c.37,0,.7-.06.99-.18s.53-.29.74-.51.37-.47.49-.77c.12-.3.19-.62.21-.97h1.12c-.11,1.06-.48,1.89-1.1,2.48-.62.59-1.47.89-2.55.89-.65,0-1.22-.11-1.71-.34-.49-.22-.89-.53-1.22-.93-.32-.39-.56-.86-.73-1.39-.16-.54-.24-1.11-.24-1.72s.09-1.19.26-1.73c.17-.54.43-1.01.76-1.41.33-.4.75-.72,1.25-.95.5-.23,1.07-.35,1.72-.35.44,0,.86.06,1.25.18s.74.29,1.05.52c.31.23.56.51.77.86.2.34.34.74.4,1.19h-1.12c-.13-.6-.4-1.05-.83-1.35Z"/>
        <path class="cls-2" d="M168.04,80.8v1.29h.02c.24-.5.54-.86.9-1.1.35-.24.8-.35,1.35-.33v1.06c-.4,0-.74.06-1.03.17-.28.11-.51.27-.68.48s-.3.47-.38.77c-.08.3-.12.65-.12,1.04v2.72h-1v-6.1h.94Z"/>
        <path class="cls-2" d="M175.62,86.51c-.46.35-1.03.52-1.72.52-.49,0-.91-.08-1.27-.24s-.66-.38-.9-.66c-.24-.28-.43-.62-.55-1.02-.12-.39-.19-.82-.21-1.29,0-.46.07-.89.21-1.28.14-.39.34-.72.6-1,.26-.28.56-.5.91-.66s.73-.24,1.15-.24c.54,0,.99.11,1.35.34.36.22.65.51.86.86.22.35.37.72.45,1.13.08.41.12.8.1,1.17h-4.57c0,.27.02.52.09.76.07.24.19.45.34.64.16.19.36.33.6.44s.53.17.86.17c.43,0,.77-.1,1.04-.3.27-.2.45-.5.54-.9h.99c-.13.68-.43,1.2-.89,1.55ZM175.38,82.59c-.09-.21-.21-.4-.37-.55s-.33-.28-.54-.37c-.21-.09-.44-.14-.69-.14s-.49.05-.7.14c-.21.09-.39.21-.54.37-.15.16-.27.34-.35.55-.09.21-.14.43-.15.67h3.51c-.02-.24-.07-.46-.16-.67Z"/>
        <path class="cls-2" d="M183.49,86.88c-.17.1-.41.15-.72.15-.26,0-.47-.07-.62-.22s-.23-.38-.23-.71c-.28.33-.6.57-.96.71s-.76.22-1.19.22c-.28,0-.54-.03-.78-.09-.25-.06-.46-.16-.64-.3-.18-.13-.33-.31-.43-.53s-.16-.48-.16-.79c0-.35.06-.63.18-.85.12-.22.27-.4.47-.54.19-.14.41-.24.66-.31.25-.07.5-.13.76-.18.28-.06.54-.1.79-.12.25-.03.47-.07.66-.12s.34-.13.45-.22c.11-.1.17-.24.17-.43,0-.22-.04-.4-.12-.53-.08-.13-.19-.24-.32-.31-.13-.07-.28-.12-.44-.14-.16-.02-.32-.04-.48-.04-.43,0-.78.08-1.06.24-.28.16-.44.47-.46.92h-1c.02-.38.09-.7.24-.96.14-.26.33-.47.57-.63.24-.16.51-.28.81-.35.3-.07.63-.11.97-.11.28,0,.55.02.82.06s.52.12.74.24.4.29.53.51c.13.22.2.51.2.86v3.13c0,.24.01.41.04.52.03.11.12.17.28.17.09,0,.19-.02.31-.05v.78ZM181.86,83.75c-.13.09-.29.16-.5.21s-.42.08-.64.11c-.22.03-.45.06-.68.09-.23.04-.43.09-.61.17s-.33.19-.44.33c-.11.15-.17.34-.17.59,0,.16.03.3.1.42.07.11.15.21.26.28.11.07.23.12.37.15.14.03.29.05.45.05.33,0,.61-.05.85-.14.24-.09.43-.2.58-.34.15-.14.26-.29.33-.45.07-.16.11-.31.11-.45v-1.02Z"/>
        <path class="cls-2" d="M187.48,80.8v.89h-1.22v3.79c0,.12,0,.21.03.28.02.07.06.13.11.17.06.04.13.06.23.08.1.01.23.02.38.02h.46v.89h-.77c-.26,0-.48-.02-.67-.05-.19-.04-.34-.1-.45-.19s-.2-.23-.25-.4c-.06-.17-.08-.4-.08-.68v-3.88h-1.04v-.89h1.04v-1.83h1v1.83h1.22Z"/>
        <path class="cls-2" d="M193.36,86.51c-.46.35-1.03.52-1.72.52-.49,0-.91-.08-1.27-.24s-.66-.38-.9-.66c-.24-.28-.43-.62-.55-1.02-.12-.39-.19-.82-.21-1.29,0-.46.07-.89.21-1.28.14-.39.34-.72.6-1,.26-.28.56-.5.91-.66s.73-.24,1.15-.24c.54,0,.99.11,1.35.34.36.22.65.51.86.86.22.35.37.72.45,1.13.08.41.12.8.1,1.17h-4.57c0,.27.02.52.09.76.07.24.19.45.34.64.16.19.36.33.6.44s.53.17.86.17c.43,0,.77-.1,1.04-.3.27-.2.45-.5.54-.9h.99c-.13.68-.43,1.2-.89,1.55ZM193.12,82.59c-.09-.21-.21-.4-.37-.55s-.33-.28-.54-.37c-.21-.09-.44-.14-.69-.14s-.49.05-.7.14c-.21.09-.39.21-.54.37-.15.16-.27.34-.35.55-.09.21-.14.43-.15.67h3.51c-.02-.24-.07-.46-.16-.67Z"/>
        <path class="cls-2" d="M202.17,80.8v.89h-1.22v3.79c0,.12,0,.21.03.28.02.07.06.13.11.17.06.04.13.06.23.08.1.01.23.02.38.02h.46v.89h-.77c-.26,0-.48-.02-.67-.05-.19-.04-.34-.1-.45-.19s-.2-.23-.25-.4c-.06-.17-.08-.4-.08-.68v-3.88h-1.04v-.89h1.04v-1.83h1v1.83h1.22Z"/>
        <path class="cls-2" d="M204.73,78.47v3.22h.02c.08-.19.19-.35.33-.48.14-.13.3-.24.48-.32.18-.08.36-.14.55-.18.19-.04.38-.06.56-.06.4,0,.74.06,1,.17.27.11.48.26.65.46.17.2.28.43.35.7.07.27.1.57.1.9v4.01h-1v-4.13c0-.38-.11-.68-.33-.9-.22-.22-.52-.33-.91-.33-.31,0-.57.05-.8.14-.22.09-.41.23-.56.4-.15.17-.26.38-.34.61-.07.23-.11.49-.11.76v3.45h-1v-8.43h1Z"/>
        <path class="cls-2" d="M215.06,86.51c-.46.35-1.03.52-1.72.52-.49,0-.91-.08-1.27-.24s-.66-.38-.9-.66c-.24-.28-.43-.62-.55-1.02-.12-.39-.19-.82-.21-1.29,0-.46.07-.89.21-1.28.14-.39.34-.72.6-1,.26-.28.56-.5.91-.66s.73-.24,1.15-.24c.54,0,.99.11,1.35.34.36.22.65.51.86.86.22.35.37.72.45,1.13.08.41.12.8.1,1.17h-4.57c0,.27.02.52.09.76.07.24.19.45.34.64.16.19.36.33.6.44s.53.17.86.17c.43,0,.77-.1,1.04-.3.27-.2.45-.5.54-.9h.99c-.13.68-.43,1.2-.89,1.55ZM214.82,82.59c-.09-.21-.21-.4-.37-.55s-.33-.28-.54-.37c-.21-.09-.44-.14-.69-.14s-.49.05-.7.14c-.21.09-.39.21-.54.37-.15.16-.27.34-.35.55-.09.21-.14.43-.15.67h3.51c-.02-.24-.07-.46-.16-.67Z"/>
        <path class="cls-2" d="M226.97,78.47v.94h-4.42v2.68h3.87v.94h-3.87v3.86h-1.12v-8.43h5.54Z"/>
        <path class="cls-2" d="M232.6,86.9v-.97h-.02c-.21.38-.48.66-.81.83-.33.18-.72.27-1.17.27-.4,0-.74-.05-1-.16s-.48-.26-.65-.45c-.17-.2-.28-.43-.35-.7-.07-.27-.1-.57-.1-.9v-4.01h1v4.13c0,.38.11.68.33.9.22.22.52.33.91.33.31,0,.57-.05.8-.14.22-.09.41-.23.56-.4.15-.17.26-.38.34-.61.07-.23.11-.49.11-.76v-3.45h1v6.1h-.94Z"/>
        <path class="cls-2" d="M238.11,80.8v.89h-1.22v3.79c0,.12,0,.21.03.28.02.07.06.13.11.17.06.04.13.06.23.08.1.01.23.02.38.02h.46v.89h-.77c-.26,0-.48-.02-.67-.05-.19-.04-.34-.1-.45-.19s-.2-.23-.25-.4c-.06-.17-.08-.4-.08-.68v-3.88h-1.04v-.89h1.04v-1.83h1v1.83h1.22Z"/>
        <path class="cls-2" d="M243.78,86.9v-.97h-.02c-.21.38-.48.66-.81.83-.33.18-.72.27-1.17.27-.4,0-.74-.05-1-.16s-.48-.26-.65-.45c-.17-.2-.28-.43-.35-.7-.07-.27-.1-.57-.1-.9v-4.01h1v4.13c0,.38.11.68.33.9.22.22.52.33.91.33.31,0,.57-.05.8-.14.22-.09.41-.23.56-.4.15-.17.26-.38.34-.61.07-.23.11-.49.11-.76v-3.45h1v6.1h-.94Z"/>
        <path class="cls-2" d="M247.59,80.8v1.29h.02c.24-.5.54-.86.9-1.1.35-.24.8-.35,1.35-.33v1.06c-.4,0-.74.06-1.03.17-.28.11-.51.27-.68.48s-.3.47-.38.77c-.08.3-.12.65-.12,1.04v2.72h-1v-6.1h.94Z"/>
        <path class="cls-2" d="M255.17,86.51c-.46.35-1.03.52-1.72.52-.49,0-.91-.08-1.27-.24s-.66-.38-.9-.66c-.24-.28-.43-.62-.55-1.02-.12-.39-.19-.82-.21-1.29,0-.46.07-.89.21-1.28.14-.39.34-.72.6-1,.26-.28.56-.5.91-.66s.73-.24,1.15-.24c.54,0,.99.11,1.35.34.36.22.65.51.86.86.22.35.37.72.45,1.13.08.41.12.8.1,1.17h-4.57c0,.27.02.52.09.76.07.24.19.45.34.64.16.19.36.33.6.44s.53.17.86.17c.43,0,.77-.1,1.04-.3.27-.2.45-.5.54-.9h.99c-.13.68-.43,1.2-.89,1.55ZM254.93,82.59c-.09-.21-.21-.4-.37-.55s-.33-.28-.54-.37c-.21-.09-.44-.14-.69-.14s-.49.05-.7.14c-.21.09-.39.21-.54.37-.15.16-.27.34-.35.55-.09.21-.14.43-.15.67h3.51c-.02-.24-.07-.46-.16-.67Z"/>
      </g>
      <g>
        <g>
          <path d="M71.22,65.16V28.23h19.03c8.24,0,12.36,3.53,12.36,10.6,0,3.52-1.04,6.32-3.13,8.4-2.09,2.09-5.04,3.13-8.86,3.13h-13.91v14.8h-5.5ZM76.72,45.62h13.17c4.82,0,7.23-2.23,7.23-6.68,0-1.83-.53-3.28-1.6-4.35-1.07-1.07-2.62-1.61-4.65-1.61h-14.15v12.64Z"/>
          <path d="M130.35,65.16l-4.7-10.77h-18.1l-4.7,10.77h-5.9l16.7-36.93h6.25l16.7,36.93h-6.26ZM123.64,49.64l-7.09-16.35-6.93,16.35h14.02Z"/>
          <path d="M137.25,53h5.5c.03,3.04,1.32,5.26,3.88,6.64,2.04,1.14,4.71,1.71,8.01,1.71,3,0,5.41-.55,7.24-1.66,1.82-1.1,2.74-2.64,2.74-4.61,0-2.9-2.29-4.73-6.88-5.49l-8.37-1.39c-7.31-1.21-10.97-4.43-10.97-9.68,0-3.41,1.3-6.14,3.9-8.18,2.6-2.03,6.23-3.05,10.88-3.05,4.28,0,7.76.81,10.45,2.43,3.27,2,5.03,5.05,5.27,9.15h-5.47c-.72-4.56-4.38-6.84-10.95-6.84-2.31,0-4.24.47-5.79,1.4-1.86,1.1-2.79,2.66-2.79,4.66,0,2.55,2.02,4.17,6.05,4.87l9.05,1.55c7.42,1.28,11.12,4.43,11.12,9.47,0,4.31-1.71,7.5-5.12,9.57-2.8,1.69-6.38,2.54-10.77,2.54-4.83,0-8.69-.92-11.59-2.74-3.59-2.21-5.38-5.66-5.38-10.35Z"/>
          <path d="M210.76,41.52h-5.48c-.45-2.76-1.69-4.99-3.72-6.68-2.24-1.87-5.21-2.8-8.89-2.8-4.48,0-7.94,1.26-10.4,3.78-2.58,2.63-3.88,6.41-3.88,11.34,0,3.94,1.06,7.18,3.16,9.73,2.48,2.97,6.08,4.46,10.81,4.46,7.13,0,11.44-3.44,12.93-10.32h5.48c-.45,4.25-2.31,7.78-5.59,10.61-3.48,2.97-7.77,4.45-12.88,4.45s-9.71-1.45-13.19-4.35c-4.13-3.45-6.21-8.5-6.21-15.15,0-5.62,1.66-10.19,4.97-13.71,3.48-3.72,8.28-5.59,14.38-5.59,4.52,0,8.41.98,11.69,2.95,4.14,2.52,6.41,6.27,6.83,11.28Z"/>
          <path d="M215.02,46.7c0-5.31,1.57-9.73,4.71-13.24,3.66-4.1,8.94-6.16,15.84-6.16s12.18,2.05,15.84,6.16c3.14,3.52,4.71,7.93,4.71,13.24s-1.57,9.72-4.71,13.24c-3.66,4.11-8.93,6.16-15.84,6.16s-12.18-2.05-15.84-6.16c-3.14-3.52-4.71-7.93-4.71-13.24ZM250.62,46.7c0-4.7-1.45-8.36-4.34-10.98-2.73-2.45-6.29-3.68-10.71-3.68s-7.98,1.23-10.71,3.68c-2.89,2.62-4.35,6.28-4.35,10.98s1.45,8.36,4.35,10.98c2.73,2.45,6.29,3.68,10.71,3.68s7.98-1.23,10.71-3.68c2.89-2.62,4.34-6.28,4.34-10.98Z"/>
        </g>
        <path class="cls-1" d="M37.13,27.24h20.84c4.88,0,8.32,5.25,8.32,9.28s-3,9.95-8.76,9.95h-8.43c-1.33,0-2.44-.67-2.44-1.79v-15.88l-17.74,17.89h14.86c2.22,0,3.1.23,3.1,1.79v7.83c0,3.35-2.66,9.84-10.2,9.84-6.88,0-9.31-6.49-9.31-10.06v-18.79c0-5.48,4.44-10.06,9.76-10.06Z"/>
        <rect class="cls-3" x="27.24" y="71.39" width="228.91" height="1.7"/>
      </g>
    </g>
  </g>
</svg>