<?xml version="1.0" encoding="UTF-8"?><svg id="Layer_1" xmlns="http://www.w3.org/2000/svg" viewBox="0 0 426 99.95"><defs><style>.cls-1{fill:#1d1934;}.cls-1,.cls-2{stroke-width:0px;}.cls-2{fill:#009ade;}</style></defs><g id="GeoCat"><polygon id="T" class="cls-2" points="381.18 22.03 381.18 30.83 398.55 30.83 398.55 78.7 408.63 78.7 408.63 30.83 426 30.83 426 22.03 381.18 22.03"/><path id="A" class="cls-2" d="M357.35,22.03h8.72l24.41,56.67h-11.53l-5.28-12.97h-24.57l-5.12,12.97h-11.29l24.65-56.67ZM370.16,57.08l-8.72-23.05-8.88,23.05h17.61Z"/><path id="C" class="cls-2" d="M324.37,35.31c-1.49-2.03-3.44-3.51-5.84-4.44-2.4-.93-4.75-1.4-7.04-1.4-2.94,0-5.6.53-8,1.6-2.4,1.07-4.47,2.54-6.2,4.4-1.73,1.87-3.07,4.06-4,6.56-.93,2.51-1.4,5.23-1.4,8.16,0,3.1.45,5.92,1.36,8.48.91,2.56,2.2,4.76,3.88,6.6,1.68,1.84,3.69,3.27,6.04,4.28,2.35,1.01,4.99,1.52,7.92,1.52s5.74-.6,8.08-1.8c2.35-1.2,4.24-2.79,5.68-4.76l8.08,5.68c-2.51,3.15-5.58,5.59-9.2,7.32-3.63,1.73-7.87,2.6-12.73,2.6-4.43,0-8.5-.73-12.21-2.2-3.71-1.47-6.9-3.52-9.57-6.16-2.67-2.64-4.75-5.79-6.24-9.44-1.49-3.65-2.24-7.7-2.24-12.13s.79-8.63,2.36-12.29c1.57-3.65,3.73-6.76,6.48-9.32,2.75-2.56,5.99-4.54,9.73-5.92,3.73-1.39,7.79-2.08,12.17-2.08,1.81,0,3.71.17,5.68.52,1.97.35,3.87.88,5.68,1.6,1.81.72,3.52,1.61,5.12,2.68,1.6,1.07,2.96,2.35,4.08,3.84l-7.68,6.08Z"/><path id="O" class="cls-1" d="M214.8,50.2c0-4.53.76-8.63,2.28-12.29,1.52-3.65,3.63-6.76,6.32-9.32,2.69-2.56,5.9-4.53,9.6-5.92,3.71-1.39,7.75-2.08,12.13-2.08s8.51.69,12.25,2.08c3.73,1.39,6.96,3.36,9.68,5.92,2.72,2.56,4.84,5.67,6.36,9.32,1.52,3.66,2.28,7.75,2.28,12.29s-.76,8.47-2.28,12.13c-1.52,3.66-3.64,6.8-6.36,9.44-2.72,2.64-5.95,4.7-9.68,6.16-3.74,1.47-7.82,2.2-12.25,2.2s-8.42-.73-12.13-2.2c-3.71-1.47-6.91-3.52-9.6-6.16-2.7-2.64-4.8-5.79-6.32-9.44-1.52-3.65-2.28-7.7-2.28-12.13M225.76,50.2c0,3.04.47,5.83,1.4,8.36.93,2.53,2.27,4.74,4,6.6,1.73,1.87,3.79,3.32,6.16,4.36,2.37,1.04,5,1.56,7.88,1.56s5.52-.52,7.92-1.56c2.4-1.04,4.47-2.49,6.2-4.36,1.73-1.87,3.07-4.07,4-6.6.93-2.53,1.4-5.32,1.4-8.36s-.47-5.66-1.4-8.16c-.93-2.51-2.25-4.7-3.96-6.56-1.71-1.87-3.76-3.33-6.16-4.4-2.4-1.07-5.07-1.6-8-1.6s-5.59.53-7.96,1.6c-2.37,1.07-4.42,2.54-6.12,4.4-1.71,1.87-3.03,4.06-3.96,6.56-.93,2.51-1.4,5.23-1.4,8.16"/><polygon id="E" class="cls-1" points="173.06 22.03 210.59 22.03 210.59 30.83 183.14 30.83 183.14 45.24 209.15 45.24 209.15 53.72 183.14 53.72 183.14 69.73 212.04 69.73 212.04 78.7 173.06 78.7 173.06 22.03"/><path id="G" class="cls-1" d="M164.03,75.73c-2.88,1.39-6.04,2.47-9.48,3.24-3.44.77-7.4,1.16-11.89,1.16s-8.78-.73-12.57-2.2c-3.79-1.47-7.04-3.52-9.77-6.16-2.72-2.64-4.84-5.79-6.36-9.44-1.52-3.65-2.28-7.7-2.28-12.13s.79-8.63,2.36-12.29c1.57-3.65,3.73-6.76,6.48-9.32,2.75-2.56,5.99-4.53,9.73-5.92,3.73-1.39,7.79-2.08,12.17-2.08s8.68.65,12.45,1.96c3.76,1.31,6.79,3.03,9.08,5.16l-6.96,7.52c-1.44-1.6-3.45-2.96-6.04-4.08-2.59-1.12-5.4-1.68-8.44-1.68s-5.7.53-8.12,1.6c-2.43,1.07-4.5,2.54-6.2,4.4-1.71,1.87-3.03,4.06-3.96,6.56-.93,2.51-1.4,5.23-1.4,8.16s.47,5.83,1.4,8.36c.93,2.53,2.27,4.74,4,6.6,1.73,1.87,3.84,3.32,6.32,4.36,2.48,1.04,5.3,1.56,8.44,1.56,4.32,0,8.08-.67,11.29-2v-14.41h-11.93v-8.32h21.69v29.38Z"/></g><g id="GC"><path id="C-2" class="cls-2" d="M50.03,69.97c-11.04,0-19.99-8.95-19.99-19.99s8.95-19.99,19.99-19.99c5.52,0,10.52,2.24,14.14,5.86l7.07-7.07c-5.43-5.43-12.92-8.78-21.2-8.78-16.56,0-29.99,13.42-29.99,29.99s13.43,29.99,29.99,29.99c8.28,0,15.78-3.36,21.2-8.79l-7.07-7.07c-3.62,3.62-8.61,5.86-14.14,5.86"/><path id="G-2" class="cls-1" d="M100.19,49.62h-35.83l20.28,20.28c-6.9,11.99-19.84,20.05-34.67,20.05-22.08,0-39.98-17.9-39.98-39.98S27.89,9.99,49.98,9.99c11.04,0,21.04,4.47,28.27,11.71l7.07-7.07C76.27,5.59,63.78,0,49.98,0,22.37,0,0,22.37,0,49.98s22.37,49.98,49.98,49.98c17.57,0,33.02-9.07,41.93-22.78h0c5.23-7.89,8.28-17.36,8.28-27.54"/></g></svg>