<?xml version="1.0" encoding="UTF-8"?>
<svg id="design" xmlns="http://www.w3.org/2000/svg" viewBox="0 0 927.14 131.94">
  <defs>
    <style>
      .cls-1 {
        fill: #231815;
      }

      .cls-2 {
        fill: #d7000f;
      }
    </style>
  </defs>
  <g>
    <g>
      <path class="cls-1" d="M208.87,41.29h-26.2v17.43h24.57v13.1h-24.57v34.39h-15.21V28.19h41.41v13.1Z"/>
      <path class="cls-1" d="M307.28,67.26c0,23.75-17.08,40.71-41.65,40.71s-41.65-16.96-41.65-40.71,17.08-40.83,41.65-40.83,41.65,17.08,41.65,40.83ZM291.61,67.26c0-15.79-10.76-27.02-25.97-27.02s-25.97,11.23-25.97,27.02,10.76,26.91,25.97,26.91,25.97-11.11,25.97-26.91Z"/>
      <path class="cls-1" d="M361.61,45.97c-4.56-6.08-9.94-6.67-12.75-6.67-8.19,0-10.76,5.15-10.76,9.12,0,1.87.58,3.63,2.46,5.26,1.87,1.75,4.45,2.69,9.36,4.45,6.08,2.11,11.82,4.21,15.79,7.84,3.51,3.16,6.67,8.42,6.67,16.38,0,15.21-11,25.62-27.14,25.62-14.39,0-22.81-8.77-26.91-14.74l9.94-9.48c3.74,7.6,10.88,10.41,16.38,10.41,6.9,0,12.05-4.21,12.05-10.76,0-2.81-.94-5.03-3.04-7.02-2.92-2.69-7.6-4.21-12.05-5.73-4.09-1.4-9.01-3.28-12.98-6.79-2.57-2.22-6.2-6.55-6.2-14.51,0-11.46,7.72-22.93,25.04-22.93,4.91,0,14.15.94,22.11,9.12l-7.95,10.41Z"/>
      <path class="cls-1" d="M428.06,45.97c-4.56-6.08-9.94-6.67-12.75-6.67-8.19,0-10.76,5.15-10.76,9.12,0,1.87.58,3.63,2.46,5.26,1.87,1.75,4.45,2.69,9.36,4.45,6.08,2.11,11.82,4.21,15.79,7.84,3.51,3.16,6.67,8.42,6.67,16.38,0,15.21-11,25.62-27.14,25.62-14.39,0-22.81-8.77-26.91-14.74l9.94-9.48c3.74,7.6,10.88,10.41,16.38,10.41,6.9,0,12.05-4.21,12.05-10.76,0-2.81-.94-5.03-3.04-7.02-2.92-2.69-7.6-4.21-12.05-5.73-4.09-1.4-9.01-3.28-12.98-6.79-2.57-2.22-6.2-6.55-6.2-14.51,0-11.46,7.72-22.93,25.04-22.93,4.91,0,14.15.94,22.11,9.12l-7.95,10.41Z"/>
      <path class="cls-1" d="M502.36,79.31h9.13v12.17h-9.13v14.74h-14.27v-14.74h-38.14l38.72-63.29h13.69v51.12ZM488.09,79.31v-26.68l-16.33,26.68h16.33Z"/>
      <path class="cls-1" d="M570.95,63.26h30.35c0,10.2.03,23.77-10.73,34.41-8.07,8.07-18.02,10.29-27.73,10.29s-19.77-1.99-28.31-10.53c-2.69-2.69-11.58-12.52-11.58-30.06,0-15.09,6.79-24.33,11.46-29.01,5.85-5.97,15.68-11.93,30.77-11.93,5.85,0,12.05.94,18.02,4.09,4.07,2.08,8.45,5.54,12.14,10.51l-10.73,10.9c-2.69-5.26-6.67-7.95-9.13-9.24-3.28-1.64-7.37-2.46-11-2.46-6.2,0-13.22,2.22-18.02,6.9-4.45,4.33-7.84,11.82-7.84,20.59,0,10.41,4.45,16.61,7.72,19.77,3.51,3.39,9.01,6.67,17.31,6.67,11.97,0,21.57-6.56,22.12-17.8h-14.83v-13.1Z"/>
    </g>
    <g>
      <path class="cls-1" d="M647.05,98.54c.41-.48,3.1-3.55,3.93-4.79.62-.93,1.34-2.34,1.34-3.68,0-2.07-1.48-3.48-3.41-3.48-2.34,0-3.58,1.86-3.65,3.82h-4.61c.21-4.68,3.51-7.68,8.06-7.68,5.34,0,8.09,3.65,8.09,7.3s-2.38,6.09-4.17,8.02l-3.96,4.3h8.3v3.86h-16.67l6.75-7.68Z"/>
      <path class="cls-1" d="M721.41,94.75c0,6.99-5.03,11.98-12.26,11.98s-12.26-4.99-12.26-11.98,5.03-12.02,12.26-12.02,12.26,5.03,12.26,12.02ZM716.8,94.75c0-4.65-3.17-7.95-7.65-7.95s-7.64,3.31-7.64,7.95,3.17,7.92,7.64,7.92,7.65-3.27,7.65-7.92Z"/>
      <path class="cls-1" d="M766.43,98.54c.41-.48,3.1-3.55,3.93-4.79.62-.93,1.34-2.34,1.34-3.68,0-2.07-1.48-3.48-3.41-3.48-2.34,0-3.58,1.86-3.65,3.82h-4.61c.21-4.68,3.51-7.68,8.06-7.68,5.34,0,8.09,3.65,8.09,7.3s-2.38,6.09-4.17,8.02l-3.96,4.3h8.3v3.86h-16.67l6.75-7.68Z"/>
      <path class="cls-1" d="M829.05,84.38l-5.58,7.27c.69-.31,1.52-.55,2.51-.55,1.69,0,3.72.65,5.06,1.96,1.21,1.14,2.17,3.1,2.17,5.51,0,1.93-.55,3.86-2.1,5.54-1.96,2.13-4.2,2.62-6.54,2.62s-4.65-.45-6.54-2.34c-1.24-1.24-2.24-3-2.24-5.58,0-2.79,1.28-5.03,2.89-7.16l6.75-9.02,3.62,1.76ZM827.5,101.98c.55-.55,1.24-1.52,1.24-3.03,0-1.38-.48-2.41-1.27-3.17-.86-.83-1.83-1.1-2.96-1.1-1.34,0-2.24.45-3,1.24-.83.86-1.24,1.72-1.24,3s.41,2.31,1.27,3.1c.59.55,1.58,1.14,2.96,1.14s2.41-.59,2.99-1.17Z"/>
    </g>
    <g>
      <path class="cls-1" d="M642.96,37.91h12.28v-9.73h2.66v23.94h-2.66v-11.7h-12.28v11.7h-2.66v-23.94h2.66v9.73Z"/>
      <path class="cls-1" d="M680.54,28.19v23.94h-2.66v-23.94h2.66Z"/>
      <path class="cls-1" d="M704.37,28.19c1.62,0,4.02.11,5.82,1.33,1.4.93,2.62,2.76,2.62,5.31,0,3.66-2.41,6.35-6.03,6.61l7.61,10.7h-3.23l-7.29-10.48h-.68v10.48h-2.66v-23.94h3.84ZM703.19,39.28h1.69c3.3,0,5.28-1.58,5.28-4.38,0-1.33-.39-2.66-1.9-3.52-1.08-.61-2.3-.68-3.45-.68h-1.62v8.58Z"/>
      <path class="cls-2" d="M730.53,40.18c0-7.14,5.56-12.38,12.46-12.38s12.46,5.24,12.46,12.38-5.53,12.38-12.46,12.38-12.46-5.28-12.46-12.38Z"/>
      <path class="cls-1" d="M783.57,32.92c-.32-.65-.86-1.36-1.4-1.79-.47-.36-1.33-.83-2.69-.83-2.37,0-4.02,1.47-4.02,3.7,0,.93.25,1.47.9,2.08.72.72,1.62,1.11,2.51,1.51l2.3,1.01c1.4.61,2.69,1.26,3.7,2.26,1.22,1.22,1.72,2.62,1.72,4.34,0,4.42-3.27,7.36-7.57,7.36-1.58,0-3.55-.32-5.21-1.94-1.18-1.15-1.9-2.8-2.23-4.24l2.58-.72c.18,1.26.75,2.33,1.44,3.05,1.04,1.04,2.23,1.33,3.45,1.33,3.27,0,4.81-2.33,4.81-4.74,0-1.08-.32-2.01-1.18-2.8-.68-.65-1.62-1.08-2.87-1.65l-2.15-1c-.93-.43-2.12-.93-3.2-1.97-1.04-1.01-1.65-2.12-1.65-3.91,0-3.7,2.84-6.17,6.71-6.17,1.47,0,2.66.29,3.84,1.08.97.65,1.8,1.62,2.33,2.66l-2.12,1.4Z"/>
      <path class="cls-1" d="M807.39,37.91h12.28v-9.73h2.66v23.94h-2.66v-11.7h-12.28v11.7h-2.66v-23.94h2.66v9.73Z"/>
      <path class="cls-1" d="M845.15,28.19v23.94h-2.66v-23.94h2.66Z"/>
      <path class="cls-1" d="M863.77,52.13l3.98-25.27,9.19,20.21,9.37-20.25,3.73,25.31h-2.73l-2.26-16.66-8.15,17.66-8.04-17.66-2.37,16.66h-2.73Z"/>
      <path class="cls-1" d="M921.4,45.38h-10.2l-2.87,6.75h-2.94l11.02-25.09,10.73,25.09h-2.94l-2.8-6.75ZM920.36,42.87l-4.02-9.58-4.09,9.58h8.11Z"/>
    </g>
    <g>
      <path class="cls-2" d="M901.22,98.8c-.52.11-1.42.34-2.39.72,4.04.71,6.5.56,7.19-.02.13-.11.17-.21.16-.37,0-.09-.04-.2-.21-.33-.51-.37-2.07-.6-4.75-.02Z"/>
      <path class="cls-2" d="M879.76,81.55h0s-.01.02-.01.02c-.94,1.16,2.47,6.98,13.03,16.33-.09-1-.18-1.98-.26-2.93-.1-1.05-.17-1.73-.17-1.73h.05c-.02-.25-.04-.52-.05-.76-.13-2.26.38-3.94,1.21-5.2-4.18-1.1-8.11-2.85-11.55-5.2-1.73-1.18-2.08-.72-2.24-.53Z"/>
      <path class="cls-2" d="M878.61,82.94c-1.98,2.39-5.98,7.21-7.44,8.99-.82,1-.57,2.46.81,4.71,1.66,2.72,6.63,8.16,10.47,11.87l9.17-10.12c-6.17-5.51-12.08-11.83-13.01-15.46Z"/>
      <path class="cls-2" d="M927.14,100.53l-3.72-11.32c-3.24,6.61-7.76,10.73-13.45,12.23-4.75,1.26-9.32.81-12.72-1.17-1.55.91-2.86,2.27-2.65,4.29,0,0,0,0,0,0,.13,1.36.95,2.64,2.38,3.69,3.31,2.44,9.14,3.32,14.52,2.19,6.66-1.4,11.64-4.55,15.64-9.92Z"/>
      <path class="cls-2" d="M893.49,92.41c.15,2.73.47,5.89.79,9.03,1.16-1.72,3.47-3.05,6.69-3.75,1.33-.29,3.59-.65,5.04-.11-.36-3.43-.96-8.76-1.17-10.71l-.06-.56c-.04-.35-.22-.66-.53-.9-.54-.43-1.46-.65-2.6-.65-.43,0-.9.03-1.39.1-3.26.43-7.08,2.09-6.76,7.57Z"/>
    </g>
  </g>
  <path class="cls-2" d="M130.64,67.2h0s1.3-1.24,1.3-1.24l-1.3-1.24s0,0,0,0l-15.86-15.1-15.34-14.61c-.71-.68-1.84-1.81-2.52-2.52l-18.92-19.86-10.8-11.34s0,0,0,0l-1.24-1.3-30.94,32.48c-.68.71-1.81,1.85-2.52,2.52L0,65.97l32.48,30.94c.71.68,1.84,1.81,2.52,2.52l30.96,32.5,1.24-1.3s0,0,0,0l7.23-7.59,22.49-23.61c.68-.71,1.8-1.84,2.51-2.51l27.12-25.83,4.09-3.9ZM71.07,124.87c-.68.71-.8.62-.27-.21l3.96-6.16,13.2-20.55c.53-.83,1.76-1.34,2.72-1.13l4.14.89c.96.21,1.2.96.52,1.67l-22.1,23.2-2.17,2.28ZM71.67,7.7c.68.71,1.03,1.33.78,1.37-.25.04-.89-.6-1.42-1.43l-.23-.36c-.53-.83-.41-.92.27-.21l.61.64ZM81.12,17.63l14.22,14.92c.68.71.45,1.47-.52,1.67l-4.14.89c-.96.21-2.19-.3-2.72-1.13l-12.15-18.91-2.14-3.34c-.53-.83-.7-1.55-.37-1.6h0c.33-.05,1.15.49,1.83,1.2l5.99,6.29ZM127.07,62.97c.71.68.55.93-.36.55l-25.29-10.47c-.91-.38-2.09-1.36-2.62-2.19l-5.64-8.77c-.53-.83-.4-2.08.3-2.77l3.01-3.01c.7-.7,1.85-.71,2.56-.03l19.87,18.93,8.16,7.77ZM70.02,123.68c-.53.83-.66.76-.28-.15l13.11-31.66c.38-.91,1.18-1.02,1.79-.25l1.2,1.53.98,1.25c.61.78.67,2.09.14,2.92l-14.25,22.17-2.69,4.19ZM60.87,124.87l-24.27-25.48c-.68-.71-.45-1.47.52-1.67l4.14-.89c.96-.21,2.19.3,2.72,1.13l17.16,26.71c.53.83.41.92-.27.21ZM5.23,68.42l21.19,8.78,4.1,1.7c.91.38,2.09,1.36,2.62,2.19l5.64,8.77c.53.83.4,2.08-.3,2.77l-3.01,3.01c-.7.7-1.85.71-2.56.03l-28.03-26.7c-.71-.68-.55-.93.36-.55ZM4.87,62.97l28.03-26.7c.71-.68,1.87-.67,2.56.03l3.01,3.01c.7.7.83,1.94.3,2.77l-5.64,8.77c-.53.83-1.71,1.81-2.62,2.19l-4.1,1.7-21.19,8.78c-.91.38-1.07.13-.36-.55ZM61.14,7.28l-.23.36c-.53.83-1.17,1.47-1.42,1.43-.25-.04.1-.66.78-1.37l.6-.63c.68-.71.8-.62.27.21ZM127.87,66.65l-26.88,11.14c-.91.38-2.43.47-3.38.21l-4.73-1.31-5.52-1.53c-.95-.26-1.73-1.29-1.73-2.27v-13.83c0-.99.78-2.01,1.73-2.27l5.52-1.53,4.73-1.31c.95-.26,2.47-.17,3.38.21l26.89,11.14c.91.38.91.99,0,1.37ZM96.88,81.88l-4.57,7.11c-.53.83-1.54.94-2.23.24l-2.72-2.72c-.7-.7-.52-1.58.39-1.95l.12-.05,8.33-3.45c.91-.38,1.22,0,.69.82ZM61.92,123.68l-16.94-26.36c-.53-.83-.47-2.14.14-2.92l2.18-2.78c.61-.78,1.41-.67,1.79.25l7.34,17.72,5.77,13.94c.37.91.25.97-.28.14ZM61.89,8.3l.02-.04c.53-.83.66-.76.28.14l-.18.44c-.38.91-.78,1.5-.89,1.31h0c-.11-.19.23-1.02.76-1.85ZM68.73,9.09c.38.91.47,1.57.21,1.46h0c-.26-.1-.64-.98-.83-1.95l-.04-.2c-.19-.97-.04-1.01.33-.11l.33.79ZM92.31,42.94l4.57,7.11c.53.83.22,1.2-.69.82l-8.45-3.5c-.91-.38-1.09-1.26-.39-1.95l2.72-2.72c.7-.7,1.7-.59,2.23.24ZM95.83,53.2l-5.25,1.46-3.22.89c-.95.26-1.73-.33-1.73-1.31v-4.66c0-.99.74-1.48,1.65-1.11l8.61,3.57c.91.38.88.9-.07,1.16ZM83.65,86.83c-.38.91-1.49,1.71-2.47,1.79l-1.66.12-2.81.21c-.98.07-1.63-.66-1.44-1.63l1.51-7.59c.19-.97.92-1.19,1.62-.49l4.67,4.67c.7.7.96,2.01.58,2.92h0ZM39.63,88.99l-4.57-7.11c-.53-.83-.22-1.2.69-.82l.82.34,7.63,3.16c.91.38,1.09,1.26.39,1.95l-2.72,2.72c-.7.7-1.7.59-2.24-.24ZM41.86,42.7l2.72,2.72c.7.7.52,1.58-.39,1.95l-8.45,3.5c-.91.38-1.22,0-.69-.82l4.57-7.11c.53-.83,1.54-.94,2.24-.24ZM44.44,38.59l2.34,2.98c.61.78.84,2.06.51,2.85-.33.79-1.17.87-1.86.17l-2.9-2.9c-.7-.7-.83-1.95-.3-2.77l.14-.22c.53-.83,1.47-.87,2.07-.1ZM60.09,13.51l-.79,1.9-10.22,24.66c-.38.91-1.18,1.02-1.79.25l-2.18-2.78c-.61-.78-.67-2.09-.14-2.92l14.26-22.19c.53-.83,1.1-1.3,1.25-1.04.16.26-.03,1.21-.4,2.12ZM61.2,13.92c.38-.91.98-1.77,1.34-1.91h0c.36-.14.5.53.31,1.5l-5.25,26.4c-.19.97-1.15,1.82-2.14,1.89l-4.2.31c-.98.07-1.48-.61-1.1-1.52l9.72-23.48,1.32-3.18ZM63.2,9.08l.32-.78c.38-.91.53-.86.34.1l-.04.21c-.19.96-.56,1.84-.83,1.94h0c-.26.1-.17-.56.21-1.47ZM66.95,8.84c.19.96.18,1.92-.02,2.12-.2.2-.37-.44-.37-1.42v-.88c0-.98.16-1,.35-.04l.04.21ZM69.39,12c.36.14.96,1,1.34,1.91l11.04,26.66c.38.91-.12,1.59-1.1,1.52l-.54-.04-3.66-.27c-.98-.07-1.94-.92-2.14-1.89l-5.25-26.39c-.19-.97-.05-1.64.31-1.5h0ZM52.95,88.78l-2.19-.16c-.98-.07-2.09-.88-2.47-1.79h0c-.38-.91-.11-2.23.58-2.92l4.67-4.67c.7-.7,1.42-.48,1.62.49l1.51,7.6c.19.97-.45,1.7-1.44,1.62l-2.27-.17ZM74.11,87.08c-.19.97-1.07,1.38-1.94.93l-4.02-2.09c-.87-.45-1.59-1.63-1.59-2.62v-14.12c0-.99.57-1.22,1.27-.52l7.03,7.03c.7.7,1.11,2.06.92,3.02l-1.66,8.36ZM47.49,81.82v-4.18c0-.98.79-1.63,1.76-1.44l2.96.59c.97.19,1.19.92.49,1.62l-.6.6-3.34,3.34c-.7.7-1.27.46-1.27-.52ZM56.24,74.86c-.7.7-2.06,1.11-3.02.92l-3.75-.75-.22-.04c-.97-.19-1.76-1.15-1.76-2.14v-13.76c0-.98.79-1.95,1.76-2.14l3.97-.79c.97-.19,2.33.22,3.02.92l7.63,7.63c.7.7.7,1.84,0,2.53l-4.6,4.6-3.02,3.02ZM47.49,50.12c0-.98.57-1.22,1.27-.52l3.34,3.34.6.6c.7.7.48,1.42-.49,1.62l-2.96.59c-.97.19-1.76-.46-1.76-1.44v-4.18ZM64.87,12.5h0c.28.28.51,1.31.51,2.3v28.9c0,.99-.72,1.42-1.59.97l-3.78-1.96c-.87-.45-1.43-1.62-1.24-2.58l5.25-26.38c.19-.97.58-1.53.86-1.25ZM84.45,59.09v13.76c0,.99-.79,1.95-1.76,2.14l-3.97.79c-.97.19-2.33-.22-3.02-.92l-7.63-7.63c-.7-.7-.7-1.84,0-2.53l7.63-7.63c.7-.7,2.06-1.11,3.02-.92l3.97.79c.97.19,1.76,1.16,1.76,2.14ZM74.86,56.24l-7.03,7.03c-.7.7-1.27.46-1.27-.52v-14.12c0-.99.72-2.16,1.59-2.62l4.02-2.09c.87-.45,1.75-.03,1.94.93l1.66,8.36c.19.97-.22,2.33-.92,3.02ZM65.38,9.55c0,.98-.17,1.62-.37,1.42-.2-.2-.21-1.16-.02-2.13l.04-.2c.19-.97.35-.95.35.03v.88ZM63.79,46.01c.87.45,1.59,1.63,1.59,2.62v14.12c0,.98-.57,1.22-1.27.52l-7.03-7.03c-.7-.7-1.11-2.06-.92-3.02l1.66-8.36c.19-.97,1.07-1.39,1.94-.93l4.02,2.09ZM84.45,50.12v4.18c0,.99-.79,1.63-1.76,1.44l-2.96-.59c-.97-.19-1.19-.92-.49-1.62l3.94-3.94c.7-.7,1.27-.46,1.27.52ZM67.93,13.75l5.25,26.38c.19.97-.37,2.13-1.24,2.58l-2.94,1.53-.84.44c-.87.45-1.59.02-1.59-.97V14.8c0-.99.23-2.02.51-2.3h0c.28-.28.67.28.86,1.25ZM48.28,45.1c.38-.91,1.49-1.71,2.47-1.79l2.19-.16,2.27-.17c.98-.07,1.63.66,1.44,1.62l-1.51,7.6c-.19.96-.92,1.19-1.62.49l-4.67-4.67c-.7-.7-.96-2.01-.58-2.92h0ZM57.82,87.08l-1.66-8.36c-.19-.97.22-2.33.92-3.02l7.03-7.03c.7-.7,1.27-.46,1.27.52v14.12c0,.99-.72,2.16-1.59,2.62l-4.02,2.09c-.87.45-1.75.03-1.94-.93ZM60,89.23l3.78-1.96c.87-.45,1.59-.02,1.59.97v35.04c0,.98-.16,1-.35.03l-6.26-31.49c-.19-.97.37-2.13,1.24-2.58ZM79.84,79l-.6-.6c-.7-.7-.48-1.42.49-1.62l2.96-.59c.97-.19,1.76.46,1.76,1.44v4.18c0,.98-.57,1.22-1.27.52l-3.34-3.34ZM83.07,48.03l-4.67,4.67c-.7.7-1.42.48-1.62-.49l-1.51-7.59c-.19-.97.45-1.7,1.44-1.63l2.81.21,1.66.12c.98.07,2.1.88,2.47,1.79h0c.38.91.12,2.23-.58,2.92ZM66.56,123.27v-35.04c0-.99.72-1.42,1.59-.97l.84.44,2.94,1.53c.87.45,1.43,1.61,1.24,2.58l-6.27,31.5c-.19.96-.35.95-.35-.04ZM89.57,38.69l.14.22c.53.83.4,2.08-.3,2.77l-2.9,2.9c-.7.7-1.53.62-1.86-.17-.33-.79-.1-2.07.51-2.85l2.34-2.98c.61-.78,1.54-.73,2.07.1ZM36.11,53.2c-.95-.26-.98-.79-.07-1.16l8.61-3.57c.91-.38,1.65.12,1.65,1.11v4.66c0,.99-.78,1.58-1.73,1.31l-3.72-1.03-4.75-1.32ZM44.58,76.38c.95-.26,1.73.33,1.73,1.31v4.66c0,.99-.74,1.48-1.65,1.11l-8.61-3.57c-.91-.38-.88-.9.07-1.16l4.75-1.32,3.72-1.03ZM42.36,93.25l-.14-.22c-.53-.83-.4-2.08.3-2.77l2.9-2.9c.7-.7,1.53-.62,1.86.17.33.79.1,2.07-.51,2.85l-2.34,2.98c-.61.77-1.54.73-2.07-.1ZM50.16,91.37c-.38-.91.12-1.59,1.1-1.52l4.2.31c.98.07,1.94.92,2.14,1.89l6.27,31.5c.19.96.04,1-.34.1l-4.8-11.6-8.56-20.67ZM68.07,123.53l6.26-31.49c.19-.97,1.15-1.82,2.14-1.89l3.66-.27.54-.04c.98-.07,1.48.61,1.1,1.52l-13.37,32.27c-.38.91-.53.86-.33-.11ZM85.16,90.37c-.61-.78-.84-2.06-.51-2.85.33-.79,1.17-.87,1.86-.17l2.9,2.9c.7.7.83,1.95.3,2.77l-.14.22c-.53.83-1.47.87-2.07.1l-2.34-2.98ZM87.29,83.47c-.91.38-1.66-.12-1.66-1.11v-4.66c0-.99.78-1.58,1.73-1.31l3.22.89,5.25,1.46c.95.26.98.79.07,1.16l-.92.38-7.69,3.19ZM94.14,35.58c.96-.21,1.18.19.48.89l-1.82,1.82c-.7.7-1.7.59-2.23-.23h0c-.53-.83-.18-1.67.79-1.88l2.14-.46.64-.14ZM86.96,34.62c.53.83.47,2.14-.14,2.92l-2.18,2.78c-.61.78-1.41.67-1.79-.25l-11-26.56c-.38-.91-.56-1.87-.4-2.12.15-.26.72.21,1.25,1.04l3.88,6.04,10.38,16.16ZM70.04,8.3c.53.83.87,1.66.76,1.85h0c-.11.19-.52-.4-.89-1.31l-.18-.43c-.38-.91-.25-.98.28-.15l.03.04ZM58.27,11.74l-14.3,22.25c-.53.83-1.76,1.34-2.72,1.13l-4.14-.89c-.96-.21-1.2-.96-.52-1.67l20.21-21.21c.68-.71,1.51-1.25,1.83-1.2.33.05.16.77-.37,1.6ZM40.57,36.18c.96.21,1.32,1.05.79,1.88h0c-.53.83-1.53.93-2.23.23l-1.82-1.82c-.7-.7-.48-1.1.48-.89l2.78.6ZM30.95,54.15c.91-.38,2.43-.47,3.38-.21l4.87,1.35,5.38,1.49c.95.26,1.73,1.29,1.73,2.27v13.83c0,.99-.78,2.01-1.73,2.27l-5.38,1.49-4.87,1.35c-.95.26-2.47.17-3.38-.21l-26.88-11.14c-.91-.38-.91-.99,0-1.37l26.89-11.14ZM37.8,96.35c-.96.21-1.18-.19-.48-.89l1.82-1.82c.7-.7,1.7-.59,2.23.23h0c.53.83.18,1.67-.79,1.88l-1.73.37-1.05.23ZM91.37,95.76c-.96-.21-1.32-1.05-.79-1.88h0c.53-.83,1.53-.93,2.23-.23l1.82,1.82c.7.7.48,1.1-.48.89l-.64-.14-2.14-.46ZM99.04,95.67c-.71.68-1.87.67-2.56-.03l-3.01-3.01c-.7-.7-.83-1.94-.3-2.77l5.64-8.77c.53-.83,1.71-1.81,2.62-2.19l6.86-2.84,18.43-7.63c.91-.38,1.07-.13.36.55l-8.16,7.77-19.87,18.93Z"/>
</svg>