<svg id="5210a4e5-67a0-4c9a-ab40-eae6849d29b8" data-name="レイヤー 1" xmlns="http://www.w3.org/2000/svg" viewBox="0 0 325.98 85.04"><defs><style>.f9ccd294-de30-48e1-bac4-489de8382213{fill:#c51720;}.e23fb0e4-fc50-479b-b4d1-91a876a3a424{fill:#549579;}.f9cc753e-82a5-42dc-9cf0-86143ca8f52a{fill:#003840;}</style></defs><title>アートボード 1</title><circle class="f9ccd294-de30-48e1-bac4-489de8382213" cx="262.09" cy="43.48" r="5.82"/><path class="e23fb0e4-fc50-479b-b4d1-91a876a3a424" d="M100.58,60.16A14.4,14.4,0,0,1,93.4,47.65V36a14.4,14.4,0,1,1,28.81,0V47.65a14.41,14.41,0,0,1-21.63,12.51m11.1-5.55a8.35,8.35,0,0,0,2.86-2.95,7.91,7.91,0,0,0,1.06-4V36a8.15,8.15,0,0,0-3.92-7,7.09,7.09,0,0,0-3.88-1.1,7.2,7.2,0,0,0-3.88,1.1,8.36,8.36,0,0,0-2.86,3A7.9,7.9,0,0,0,100,36V47.65a8.14,8.14,0,0,0,3.92,7,7.08,7.08,0,0,0,3.88,1.1,8,8,0,0,0,3.88-1.1"/><path class="e23fb0e4-fc50-479b-b4d1-91a876a3a424" d="M132.78,61.09a21.16,21.16,0,0,1-5.28-2.64,1,1,0,0,1-.4-.57,1.09,1.09,0,0,1,0-.75L129,53.69a1.09,1.09,0,0,1,1-.66,1.81,1.81,0,0,1,.84.22,14.38,14.38,0,0,0,7.62,2.55A6.82,6.82,0,0,0,143,54.39a4.58,4.58,0,0,0,1.67-3.66,3.84,3.84,0,0,0-.84-2.51,7.14,7.14,0,0,0-2.16-1.72c-.92-.49-2.25-1.06-4-1.76l-1.59-.66A20.23,20.23,0,0,1,130,40c-1.67-1.63-2.55-4.05-2.55-7.22a11.31,11.31,0,0,1,1.5-5.9,10.48,10.48,0,0,1,4.18-4,12.62,12.62,0,0,1,6.17-1.41,17.19,17.19,0,0,1,5.73,1,20.4,20.4,0,0,1,5.15,2.64,1,1,0,0,1,.4.57,1.08,1.08,0,0,1,0,.75l-1.81,3.44a1.11,1.11,0,0,1-1.06.66,1.82,1.82,0,0,1-.84-.22,16.3,16.3,0,0,0-4.05-2,11.87,11.87,0,0,0-3.44-.62A5.52,5.52,0,0,0,135.42,29,4.55,4.55,0,0,0,134,32.46,4.61,4.61,0,0,0,135.55,36a18.84,18.84,0,0,0,5,2.82c.31.09,1.59.62,3.74,1.5a11.89,11.89,0,0,1,5.15,3.92,9.89,9.89,0,0,1,1.89,6.08,11.53,11.53,0,0,1-1.59,6,11.06,11.06,0,0,1-4.49,4.14,14.11,14.11,0,0,1-6.65,1.5,16.38,16.38,0,0,1-5.81-.88"/><path class="f9cc753e-82a5-42dc-9cf0-86143ca8f52a" d="M163.61,60.16a14.57,14.57,0,0,1-5.24-5.24,14.25,14.25,0,0,1-1.94-7.27V36a14.4,14.4,0,0,1,7.18-12.51,14.08,14.08,0,0,1,7.22-1.94,16.16,16.16,0,0,1,6.39,1.23,14.5,14.5,0,0,1,5,3.57,1.38,1.38,0,0,1,.31.92,1.68,1.68,0,0,1-.44,1.1l-2.38,2.51a1.21,1.21,0,0,1-.88.44,1.3,1.3,0,0,1-1-.48,9.11,9.11,0,0,0-7-2.91A7.19,7.19,0,0,0,167,29a8.36,8.36,0,0,0-2.86,3,7.91,7.91,0,0,0-1.06,4V47.65a8.14,8.14,0,0,0,3.92,7,7.07,7.07,0,0,0,3.88,1.1,7.55,7.55,0,0,0,3.88-1.06,7.35,7.35,0,0,0,2.82-2.86,7.54,7.54,0,0,0,1-3.92V45.19h-7.31a1.17,1.17,0,0,1-.84-.31,1.1,1.1,0,0,1-.31-.84V40.12a1.16,1.16,0,0,1,.31-.84,1.09,1.09,0,0,1,.84-.31h11.5a2.37,2.37,0,0,1,1.67.66,2.29,2.29,0,0,1,.66,1.67v6.34A14.4,14.4,0,0,1,178,60.16a14.27,14.27,0,0,1-14.36,0"/><path class="f9cc753e-82a5-42dc-9cf0-86143ca8f52a" d="M197.17,59.64a13.16,13.16,0,0,1-6.47-11.32v-5.9a12.53,12.53,0,0,1,1.76-6.56,12.93,12.93,0,0,1,11.23-6.52,12.38,12.38,0,0,1,6.52,1.76,12.87,12.87,0,0,1,4.71,4.76,13.08,13.08,0,0,1,1.76,6.56v3.65a2.37,2.37,0,0,1-.66,1.67,2.29,2.29,0,0,1-1.67.66h-17v.26a6.46,6.46,0,0,0,6.43,6.47h8.63a1.2,1.2,0,0,1,.84.35,1.09,1.09,0,0,1,.31.84v4a1.16,1.16,0,0,1-.31.84,1.09,1.09,0,0,1-.84.31h-8.63a13.21,13.21,0,0,1-6.56-1.81M210.08,42.5V42a6.19,6.19,0,0,0-1.89-4.58,6.38,6.38,0,0,0-9.07,0A6.35,6.35,0,0,0,197.21,42v.49Z"/><path class="f9cc753e-82a5-42dc-9cf0-86143ca8f52a" d="M228,60.38a12.71,12.71,0,0,1-6.43-11.06V42.1a12.4,12.4,0,0,1,1.72-6.39A13.12,13.12,0,0,1,241,31a13,13,0,0,1,4.71,4.67,12.55,12.55,0,0,1,1.76,6.39v7.18a12,12,0,0,1-1.76,6.39A12.62,12.62,0,0,1,241,60.34a12.76,12.76,0,0,1-6.52,1.72A12.21,12.21,0,0,1,228,60.38m11-6.52a6.36,6.36,0,0,0,1.89-4.58V42.1A6.18,6.18,0,0,0,239,37.52a6.38,6.38,0,0,0-9.07,0A6.35,6.35,0,0,0,228,42.1v7.18a6.18,6.18,0,0,0,1.89,4.58,6.1,6.1,0,0,0,4.54,1.89A6.19,6.19,0,0,0,239,53.87"/><path class="e23fb0e4-fc50-479b-b4d1-91a876a3a424" d="M41.91,18.1V2.16l-5,8.72a31.72,31.72,0,0,0-24.71,29h8A23.83,23.83,0,0,1,41.91,18.1"/><path class="f9cc753e-82a5-42dc-9cf0-86143ca8f52a" d="M4.25,43.82l8.72,5A31.72,31.72,0,0,0,42,73.51v-8A23.83,23.83,0,0,1,20.2,43.82"/><path class="f9cc753e-82a5-42dc-9cf0-86143ca8f52a" d="M67.63,39.81h16l-8.72-5a31.72,31.72,0,0,0-29-24.71v8A23.83,23.83,0,0,1,67.63,39.81"/><path class="e23fb0e4-fc50-479b-b4d1-91a876a3a424" d="M45.92,65.54v16l5-8.72a31.72,31.72,0,0,0,24.71-29h-8A23.83,23.83,0,0,1,45.92,65.54"/><path class="f9cc753e-82a5-42dc-9cf0-86143ca8f52a" d="M46.36,39.37,31.65,29.55l9.82,14.71,14.71,9.82Zm-2.47,4.14a1.72,1.72,0,1,1,0-3.43,1.75,1.75,0,0,1,1.72,1.72,1.72,1.72,0,0,1-1.72,1.72"/><polygon class="e23fb0e4-fc50-479b-b4d1-91a876a3a424" points="41.47 44.26 38.17 39.33 23.1 41.84 38.17 44.31 31.65 54.09 41.38 47.57 43.89 62.63 46.4 47.57 41.47 44.26"/><polygon class="e23fb0e4-fc50-479b-b4d1-91a876a3a424" points="49.66 39.33 56.18 29.55 46.4 36.07 43.89 21.01 41.43 36.07 46.36 39.37 49.66 44.31 64.73 41.8 49.66 39.33"/><path class="f9cc753e-82a5-42dc-9cf0-86143ca8f52a" d="M320,28.06a12.84,12.84,0,0,0-4.76-4.71,12.52,12.52,0,0,0-6.56-1.76H299.7a1.1,1.1,0,0,0-.84.31,1.17,1.17,0,0,0-.31.84v6.4h0V61a1.09,1.09,0,0,0,.31.84,1.16,1.16,0,0,0,.84.31h3.92a1.1,1.1,0,0,0,.84-.31,1.16,1.16,0,0,0,.31-.84V47a2.34,2.34,0,0,0,1.56.58h2.32a13.08,13.08,0,0,0,6.56-1.76A12.87,12.87,0,0,0,320,41.09a12.39,12.39,0,0,0,1.76-6.52A12.8,12.8,0,0,0,320,28.06ZM309.69,40.95h-4.92V28.1h4.92a6.43,6.43,0,0,1,0,12.85Z"/><path class="f9cc753e-82a5-42dc-9cf0-86143ca8f52a" d="M291.62,21.89a1.1,1.1,0,0,0-.84-.31h-9.07a1.1,1.1,0,0,0-.84.31,1.16,1.16,0,0,0-.31.84v3.92a1.1,1.1,0,0,0,.31.84,1.16,1.16,0,0,0,.84.31h3.6V47.65a7.91,7.91,0,0,1-1.06,4,8.35,8.35,0,0,1-2.86,2.95,8,8,0,0,1-3.61,1.08h-5.21a1.1,1.1,0,0,0-.84.31,1.16,1.16,0,0,0-.31.84V61a1.1,1.1,0,0,0,.31.84,1.17,1.17,0,0,0,.84.31h5.31v0a14.36,14.36,0,0,0,14-14.42V22.73A1.16,1.16,0,0,0,291.62,21.89Z"/></svg>