<?xml version="1.0" encoding="utf-8"?>
<!-- Generator: Adobe Illustrator 26.0.1, SVG Export Plug-In . SVG Version: 6.00 Build 0)  -->
<svg version="1.1" id="Layer_1" xmlns="http://www.w3.org/2000/svg" xmlns:xlink="http://www.w3.org/1999/xlink" x="0px" y="0px"
	 viewBox="0 0 459.59 75.34" style="enable-background:new 0 0 459.59 75.34;" xml:space="preserve">
<style type="text/css">
	.st0{fill:#404041;}
	.st1{fill:none;stroke:#F26521;stroke-width:1.5024;stroke-miterlimit:10;}
	.st2{fill:url(#SVGID_1_);}
	.st3{fill:url(#SVGID_00000029005292573806985620000018120431885582512277_);}
	.st4{fill:#FFFFFF;}
	.st5{fill:url(#SVGID_00000132089955747686298040000016021910751971044491_);}
</style>
<g>
	<path class="st0" d="M67.36,28.05h-2.04c-0.14-0.4-0.21-0.77-0.21-1.11c0-0.25,0.06-0.42,0.18-0.54c0.12-0.11,0.33-0.17,0.61-0.17
		h7.02c4.39,0,7.34,0.54,8.85,1.61c1.51,1.08,2.27,2.84,2.27,5.28c0,2.54-0.91,4.51-2.72,5.91c-1.81,1.4-4.83,2.11-9.05,2.11h-0.9
		c0.02,3.6,0.07,6.01,0.14,7.23h2.68c0.14,0.35,0.21,0.69,0.21,1.02c0,0.29-0.06,0.5-0.18,0.61c-0.12,0.12-0.32,0.17-0.61,0.17H65.2
		c-0.15-0.4-0.23-0.77-0.23-1.11c0-0.25,0.06-0.42,0.18-0.54c0.12-0.11,0.32-0.17,0.6-0.17h1.6c0.09-1.63,0.14-5.8,0.14-12.51
		C67.5,32.29,67.46,29.68,67.36,28.05z M72.8,38.95c2.57,0,4.38-0.37,5.4-1.11c1.03-0.74,1.54-1.98,1.54-3.74
		c0-1.68-0.49-2.99-1.46-3.91s-2.56-1.39-4.77-1.39c-0.74,0-1.4,0.06-2,0.18c-0.09,1.01-0.14,3.38-0.14,7.11v2.86H72.8z"/>
	<path class="st0" d="M97.09,48.79c-0.98,0.57-1.99,1.01-3.03,1.31c-1.04,0.3-2.05,0.45-3.04,0.45c-1.58,0-2.75-0.37-3.53-1.11
		c-0.77-0.74-1.16-1.84-1.16-3.31c0-1.79,0.64-3.16,1.91-4.11c1.28-0.95,3.25-1.42,5.91-1.42h2.58c-0.07-2.06-0.37-3.49-0.89-4.3
		s-1.44-1.21-2.76-1.21c-0.7,0-1.37,0.07-2.02,0.21c-0.34,0.68-0.54,1.04-0.61,1.09s-0.4,0.15-1.01,0.31
		c-0.61,0.16-1.03,0.13-1.27-0.09c-0.24-0.22-0.49-0.61-0.74-1.18c-0.25-0.57-0.38-1.04-0.38-1.39c0-0.23,0.1-0.42,0.29-0.54
		c0.19-0.13,0.98-0.29,2.36-0.47c1.38-0.19,2.85-0.28,4.41-0.28c2.07,0,3.6,0.36,4.59,1.07s1.48,2.02,1.48,3.93v5.4
		c0,2.5,0.11,4.03,0.32,4.58s0.58,0.77,1.08,0.67c0.14,0.26,0.21,0.51,0.21,0.75c0,0.4-0.25,0.7-0.75,0.91
		c-0.5,0.21-1.17,0.32-2.01,0.32c-0.41,0-0.72-0.05-0.94-0.15C97.9,50.12,97.56,49.65,97.09,48.79z M96.74,42.86
		c-1.01-0.18-2.05-0.26-3.12-0.26c-1.33,0-2.27,0.22-2.8,0.67c-0.53,0.44-0.8,1.15-0.8,2.11c0,0.94,0.24,1.64,0.71,2.11
		c0.47,0.47,1.21,0.71,2.2,0.71c0.77,0,1.49-0.15,2.16-0.46s1.11-0.73,1.32-1.27c0.22-0.54,0.33-1.4,0.33-2.57V42.86z"/>
	<path class="st0" d="M112.08,50.55c-2.88,0-4.92-0.61-6.14-1.82s-1.83-3.28-1.83-6.2c0-3.24,0.77-5.71,2.3-7.41s3.87-2.55,7-2.55
		c1.53,0,2.64,0.14,3.33,0.43c0.69,0.29,1.04,0.72,1.05,1.29c0,0.7-0.25,1.37-0.74,2c-1.75-0.91-3.25-1.37-4.49-1.37
		c-1.63,0-2.78,0.52-3.47,1.55c-0.68,1.04-1.03,2.66-1.03,4.87c0,2.27,0.33,3.98,1,5.13s1.88,1.73,3.65,1.73
		c1.34,0,2.91-0.45,4.68-1.35c0.39,0.54,0.58,1.09,0.58,1.65c0,0.67-0.61,1.18-1.82,1.53C114.97,50.37,113.6,50.55,112.08,50.55z"/>
	<path class="st0" d="M126.64,48.39h1.86c0.15,0.3,0.23,0.63,0.23,0.98c0,0.32-0.06,0.53-0.19,0.65c-0.13,0.12-0.38,0.17-0.75,0.17
		h-6.9c-0.14-0.37-0.21-0.72-0.21-1.05c0-0.26,0.06-0.45,0.18-0.57s0.34-0.18,0.64-0.18h1.3c0.08-1.63,0.12-3.53,0.12-5.72
		c0-2.67-0.02-4.45-0.06-5.34c-0.04-0.9-0.14-1.51-0.29-1.85s-0.37-0.55-0.64-0.63c-0.27-0.08-0.62-0.12-1.03-0.12
		c-0.15-0.25-0.23-0.53-0.23-0.86c0-0.48,0.23-0.77,0.68-0.88c0.46-0.11,1.34-0.16,2.65-0.16c0.92,0,1.55,0.04,1.88,0.13
		s0.51,0.25,0.56,0.49s0.07,0.65,0.07,1.24v7.98C126.52,44.85,126.56,46.76,126.64,48.39z M124.15,29.82
		c-0.76,0-1.32-0.16-1.68-0.47s-0.54-0.77-0.54-1.37c0.01-0.64,0.25-1.16,0.7-1.54c0.46-0.39,1.1-0.58,1.93-0.58
		c0.82,0,1.4,0.17,1.75,0.5c0.35,0.33,0.53,0.78,0.53,1.34c0,0.63-0.22,1.14-0.65,1.54C125.75,29.63,125.08,29.82,124.15,29.82z"/>
	<path class="st0" d="M147.16,33c0.92,0,1.55,0.04,1.88,0.13c0.33,0.09,0.51,0.25,0.56,0.49c0.05,0.24,0.07,0.65,0.07,1.24v7.81
		c0.01,2.19,0.06,4.09,0.14,5.72h1.86c0.14,0.3,0.21,0.63,0.21,0.98c0,0.32-0.06,0.53-0.19,0.65c-0.13,0.12-0.37,0.17-0.74,0.17
		h-6.9c-0.15-0.37-0.23-0.72-0.23-1.05c0-0.26,0.06-0.45,0.19-0.57s0.34-0.18,0.63-0.18h1.3c0.09-1.63,0.14-3.53,0.14-5.72
		c0-2.55-0.02-4.27-0.07-5.17c-0.05-0.9-0.14-1.51-0.29-1.85c-0.15-0.34-0.36-0.55-0.64-0.63c-0.28-0.08-0.63-0.12-1.04-0.12h-6.62
		v7.77c0.01,2.19,0.06,4.09,0.14,5.72h2.47c0.14,0.3,0.21,0.63,0.21,0.98c0,0.32-0.06,0.53-0.19,0.65
		c-0.13,0.12-0.37,0.17-0.74,0.17h-7.51c-0.15-0.37-0.23-0.72-0.23-1.05c0-0.26,0.06-0.45,0.19-0.57s0.34-0.18,0.63-0.18h1.3
		c0.09-1.63,0.14-3.53,0.14-5.72v-7.6h-2.05c-0.14-0.42-0.21-0.83-0.21-1.23c0-0.29,0.06-0.51,0.19-0.64
		c0.13-0.13,0.34-0.2,0.65-0.2h1.42c0.04-2.94,0.68-4.97,1.92-6.11s3.49-1.7,6.75-1.7c2.97,0,4.89,0.15,5.76,0.44
		c0.87,0.29,1.31,0.85,1.31,1.67c0,0.94-0.4,1.73-1.19,2.39c-2.94-1.49-5.33-2.23-7.19-2.23c-1.57,0-2.59,0.34-3.06,1.01
		c-0.47,0.67-0.71,1.9-0.71,3.68V33H147.16z"/>
	<path class="st0" d="M162.13,50.55c-2.88,0-4.92-0.61-6.14-1.82s-1.83-3.28-1.83-6.2c0-3.24,0.77-5.71,2.3-7.41s3.87-2.55,7-2.55
		c1.53,0,2.64,0.14,3.33,0.43c0.69,0.29,1.04,0.72,1.05,1.29c0,0.7-0.25,1.37-0.74,2c-1.75-0.91-3.25-1.37-4.49-1.37
		c-1.63,0-2.78,0.52-3.47,1.55c-0.68,1.04-1.03,2.66-1.03,4.87c0,2.27,0.33,3.98,1,5.13s1.88,1.73,3.65,1.73
		c1.34,0,2.91-0.45,4.68-1.35c0.39,0.54,0.58,1.09,0.58,1.65c0,0.67-0.61,1.18-1.82,1.53C165.01,50.37,163.65,50.55,162.13,50.55z"
		/>
	<path class="st0" d="M189.5,25.89c2.54,0,4.3,0.15,5.28,0.45c0.98,0.3,1.47,0.87,1.47,1.73c0,0.78-0.32,1.48-0.95,2.09
		c-2.46-1.12-4.74-1.68-6.84-1.68c-1.49,0-2.54,0.3-3.15,0.89s-0.92,1.41-0.92,2.45c0,1.09,0.37,1.95,1.1,2.6
		c0.73,0.64,2.12,1.29,4.17,1.93c2.42,0.73,4.26,1.56,5.5,2.5c1.25,0.94,1.9,2.47,1.97,4.57c0,2.35-0.8,4.13-2.41,5.33
		c-1.61,1.21-4.07,1.81-7.38,1.81c-2.3,0-4.05-0.16-5.25-0.49s-1.79-0.94-1.79-1.83c0-0.81,0.34-1.52,1.02-2.14
		c2.32,1.26,4.73,1.89,7.23,1.89c1.72,0,2.94-0.28,3.67-0.84c0.72-0.56,1.09-1.43,1.09-2.6c0-1.4-0.52-2.46-1.57-3.16
		c-1.05-0.7-2.72-1.42-5.01-2.14c-2.22-0.68-3.8-1.53-4.75-2.55c-0.94-1.02-1.41-2.37-1.41-4.03c0-2.07,0.77-3.72,2.31-4.94
		C184.42,26.5,186.62,25.89,189.5,25.89z"/>
	<path class="st0" d="M204.02,32.82c0.07,0.49,0.07,1.01,0,1.54c0.87-0.54,1.8-0.97,2.79-1.31c0.99-0.33,2.11-0.5,3.35-0.5
		c2.13,0,3.71,0.59,4.76,1.75c1.04,1.17,1.56,3.12,1.56,5.84c0,3.53-0.71,6.15-2.11,7.84c-1.41,1.7-3.5,2.54-6.26,2.54
		c-0.75,0-1.38-0.04-1.9-0.12s-0.94-0.18-1.28-0.28c0.01,2.23,0.06,4.22,0.14,5.97h2.3c0.14,0.3,0.21,0.63,0.21,0.98
		c0,0.32-0.06,0.53-0.19,0.65c-0.13,0.12-0.37,0.17-0.74,0.17h-7.25c-0.15-0.37-0.23-0.72-0.23-1.05c0-0.26,0.06-0.45,0.19-0.57
		c0.13-0.12,0.34-0.18,0.63-0.18h1.21c0.09-1.74,0.14-4.11,0.14-7.09v-7.47c0-3.45-0.13-5.45-0.4-6c-0.27-0.55-0.78-0.83-1.54-0.83
		c-0.15-0.33-0.23-0.67-0.23-1.02c0-0.32,0.12-0.52,0.37-0.61C199.79,33.01,201.28,32.92,204.02,32.82z M204.93,47.19
		c0.43,0.29,0.94,0.53,1.53,0.72c0.58,0.19,1.23,0.28,1.95,0.28c1.56,0,2.63-0.47,3.23-1.42c0.6-0.95,0.9-2.58,0.9-4.91
		c0-2.54-0.31-4.33-0.94-5.38c-0.63-1.05-1.64-1.57-3.03-1.57c-0.69,0-1.32,0.13-1.89,0.4c-0.57,0.27-1,0.72-1.3,1.36
		c-0.3,0.64-0.45,1.53-0.45,2.68V47.19z"/>
	<path class="st0" d="M229.77,48.79c-0.98,0.57-1.99,1.01-3.03,1.31c-1.04,0.3-2.05,0.45-3.04,0.45c-1.58,0-2.75-0.37-3.53-1.11
		c-0.77-0.74-1.16-1.84-1.16-3.31c0-1.79,0.64-3.16,1.91-4.11c1.28-0.95,3.25-1.42,5.91-1.42h2.58c-0.07-2.06-0.37-3.49-0.89-4.3
		s-1.44-1.21-2.76-1.21c-0.7,0-1.37,0.07-2.02,0.21c-0.34,0.68-0.54,1.04-0.61,1.09s-0.4,0.15-1.01,0.31
		c-0.61,0.16-1.03,0.13-1.27-0.09c-0.24-0.22-0.49-0.61-0.74-1.18c-0.25-0.57-0.38-1.04-0.38-1.39c0-0.23,0.1-0.42,0.29-0.54
		c0.19-0.13,0.98-0.29,2.36-0.47c1.38-0.19,2.85-0.28,4.41-0.28c2.07,0,3.6,0.36,4.59,1.07s1.48,2.02,1.48,3.93v5.4
		c0,2.5,0.11,4.03,0.32,4.58s0.58,0.77,1.08,0.67c0.14,0.26,0.21,0.51,0.21,0.75c0,0.4-0.25,0.7-0.75,0.91
		c-0.5,0.21-1.17,0.32-2.01,0.32c-0.41,0-0.72-0.05-0.94-0.15C230.58,50.12,230.24,49.65,229.77,48.79z M229.42,42.86
		c-1.01-0.18-2.05-0.26-3.12-0.26c-1.33,0-2.27,0.22-2.8,0.67c-0.53,0.44-0.8,1.15-0.8,2.11c0,0.94,0.24,1.64,0.71,2.11
		c0.47,0.47,1.21,0.71,2.2,0.71c0.77,0,1.49-0.15,2.16-0.46s1.11-0.73,1.32-1.27c0.22-0.54,0.33-1.4,0.33-2.57V42.86z"/>
	<path class="st0" d="M237.04,33h1.19l1.42-4.98c0.49,0.15,0.91,0.33,1.25,0.54c0.34,0.21,0.6,0.46,0.76,0.75
		c0.16,0.29,0.25,1.28,0.25,2.97V33h5.77c0.14,0.39,0.21,0.8,0.21,1.23c0,0.34-0.06,0.56-0.19,0.68c-0.13,0.11-0.39,0.17-0.77,0.17
		h-5.02v8.3c0,1.98,0.18,3.28,0.54,3.9c0.36,0.63,0.91,0.96,1.64,0.99s1.63-0.21,2.69-0.72c0.26,0.38,0.39,0.81,0.39,1.26
		c0,0.62-0.34,1.04-1.03,1.25c-0.68,0.21-1.76,0.32-3.24,0.32c-1.6,0-2.77-0.33-3.5-0.98c-0.73-0.66-1.1-1.88-1.1-3.67V41.6
		c0-2.25-0.06-4.42-0.19-6.53h-1.72c-0.14-0.42-0.21-0.83-0.21-1.23c0-0.29,0.06-0.51,0.19-0.64C236.52,33.07,236.73,33,237.04,33z"
		/>
	<path class="st0" d="M256.34,48.39h1.86c0.15,0.3,0.23,0.63,0.23,0.98c0,0.32-0.06,0.53-0.19,0.65c-0.13,0.12-0.38,0.17-0.75,0.17
		h-6.9c-0.14-0.37-0.21-0.72-0.21-1.05c0-0.26,0.06-0.45,0.18-0.57s0.34-0.18,0.64-0.18h1.3c0.08-1.63,0.12-3.53,0.12-5.72
		c0-2.67-0.02-4.45-0.06-5.34c-0.04-0.9-0.14-1.51-0.29-1.85s-0.37-0.55-0.64-0.63c-0.27-0.08-0.62-0.12-1.03-0.12
		c-0.15-0.25-0.23-0.53-0.23-0.86c0-0.48,0.23-0.77,0.68-0.88c0.46-0.11,1.34-0.16,2.65-0.16c0.92,0,1.55,0.04,1.88,0.13
		s0.51,0.25,0.56,0.49s0.07,0.65,0.07,1.24v7.98C256.21,44.85,256.26,46.76,256.34,48.39z M253.84,29.82
		c-0.76,0-1.32-0.16-1.68-0.47s-0.54-0.77-0.54-1.37c0.01-0.64,0.25-1.16,0.7-1.54c0.46-0.39,1.1-0.58,1.93-0.58
		c0.82,0,1.4,0.17,1.75,0.5c0.35,0.33,0.53,0.78,0.53,1.34c0,0.63-0.22,1.14-0.65,1.54C255.45,29.63,254.77,29.82,253.84,29.82z"/>
	<path class="st0" d="M271.6,48.79c-0.98,0.57-1.99,1.01-3.03,1.31c-1.04,0.3-2.05,0.45-3.04,0.45c-1.58,0-2.75-0.37-3.53-1.11
		c-0.77-0.74-1.16-1.84-1.16-3.31c0-1.79,0.64-3.16,1.91-4.11c1.28-0.95,3.25-1.42,5.91-1.42h2.58c-0.07-2.06-0.37-3.49-0.89-4.3
		s-1.44-1.21-2.76-1.21c-0.7,0-1.37,0.07-2.02,0.21c-0.34,0.68-0.54,1.04-0.61,1.09s-0.4,0.15-1.01,0.31
		c-0.61,0.16-1.03,0.13-1.27-0.09c-0.24-0.22-0.49-0.61-0.74-1.18c-0.25-0.57-0.38-1.04-0.38-1.39c0-0.23,0.1-0.42,0.29-0.54
		c0.19-0.13,0.98-0.29,2.36-0.47c1.38-0.19,2.85-0.28,4.41-0.28c2.07,0,3.6,0.36,4.59,1.07s1.48,2.02,1.48,3.93v5.4
		c0,2.5,0.11,4.03,0.32,4.58c0.22,0.55,0.58,0.77,1.08,0.67c0.14,0.26,0.21,0.51,0.21,0.75c0,0.4-0.25,0.7-0.75,0.91
		c-0.5,0.21-1.17,0.32-2.01,0.32c-0.41,0-0.72-0.05-0.94-0.15C272.41,50.12,272.07,49.65,271.6,48.79z M271.25,42.86
		c-1.01-0.18-2.05-0.26-3.12-0.26c-1.33,0-2.27,0.22-2.8,0.67c-0.53,0.44-0.8,1.15-0.8,2.11c0,0.94,0.24,1.64,0.71,2.11
		c0.47,0.47,1.21,0.71,2.2,0.71c0.77,0,1.49-0.15,2.16-0.46s1.11-0.73,1.32-1.27c0.22-0.54,0.33-1.4,0.33-2.57V42.86z"/>
	<path class="st0" d="M281.24,40.14c0-4.95-0.02-8.1-0.07-9.45s-0.13-2.23-0.25-2.64c-0.12-0.41-0.32-0.67-0.61-0.79
		c-0.28-0.12-0.65-0.18-1.11-0.18c-0.15-0.36-0.23-0.72-0.23-1.07c0-0.36,0.15-0.59,0.45-0.68c0.3-0.09,1.26-0.14,2.89-0.14
		c0.92,0,1.55,0.04,1.88,0.13c0.33,0.09,0.51,0.25,0.56,0.49c0.05,0.24,0.07,0.65,0.07,1.24v14.69c0.01,2.81,0.06,5.02,0.14,6.65
		h1.95c0.14,0.3,0.21,0.63,0.21,0.98c0,0.32-0.06,0.53-0.19,0.65c-0.13,0.12-0.37,0.17-0.74,0.17h-6.98
		c-0.15-0.37-0.23-0.72-0.23-1.05c0-0.26,0.06-0.45,0.19-0.57s0.34-0.18,0.63-0.18h1.3C281.19,46.76,281.24,44.01,281.24,40.14z"/>
	<path class="st0" d="M308.42,25.89c2.54,0,4.3,0.15,5.28,0.45c0.98,0.3,1.47,0.87,1.47,1.73c0,0.78-0.32,1.48-0.95,2.09
		c-2.46-1.12-4.74-1.68-6.84-1.68c-1.49,0-2.54,0.3-3.15,0.89s-0.92,1.41-0.92,2.45c0,1.09,0.37,1.95,1.1,2.6
		c0.73,0.64,2.12,1.29,4.17,1.93c2.42,0.73,4.26,1.56,5.5,2.5c1.25,0.94,1.9,2.47,1.97,4.57c0,2.35-0.8,4.13-2.41,5.33
		c-1.61,1.21-4.07,1.81-7.38,1.81c-2.3,0-4.05-0.16-5.25-0.49s-1.79-0.94-1.79-1.83c0-0.81,0.34-1.52,1.02-2.14
		c2.32,1.26,4.73,1.89,7.23,1.89c1.72,0,2.94-0.28,3.67-0.84c0.72-0.56,1.09-1.43,1.09-2.6c0-1.4-0.52-2.46-1.57-3.16
		c-1.05-0.7-2.72-1.42-5.01-2.14c-2.22-0.68-3.8-1.53-4.75-2.55c-0.94-1.02-1.41-2.37-1.41-4.03c0-2.07,0.77-3.72,2.31-4.94
		C303.33,26.5,305.54,25.89,308.42,25.89z"/>
	<path class="st0" d="M326.71,50.55c-2.54,0-4.4-0.67-5.6-2.02c-1.19-1.35-1.79-3.38-1.79-6.09c0-3.12,0.72-5.55,2.17-7.28
		c1.45-1.73,3.53-2.6,6.26-2.6c2.54,0,4.4,0.67,5.6,2.02s1.79,3.38,1.79,6.11c0,3.11-0.72,5.53-2.17,7.26
		C331.52,49.68,329.44,50.55,326.71,50.55z M327.38,48.19c1.33,0,2.3-0.5,2.9-1.51c0.6-1.01,0.89-2.56,0.89-4.65
		c0-2.41-0.31-4.2-0.92-5.37c-0.61-1.17-1.67-1.75-3.17-1.75c-1.33,0-2.3,0.5-2.9,1.51c-0.6,1.01-0.89,2.56-0.89,4.67
		c0,2.4,0.31,4.18,0.92,5.35C324.82,47.61,325.88,48.19,327.38,48.19z"/>
	<path class="st0" d="M339.38,40.14c0-4.95-0.02-8.1-0.07-9.45s-0.13-2.23-0.25-2.64c-0.12-0.41-0.32-0.67-0.61-0.79
		c-0.28-0.12-0.65-0.18-1.11-0.18c-0.15-0.36-0.23-0.72-0.23-1.07c0-0.36,0.15-0.59,0.45-0.68c0.3-0.09,1.26-0.14,2.89-0.14
		c0.92,0,1.55,0.04,1.88,0.13c0.33,0.09,0.51,0.25,0.56,0.49c0.05,0.24,0.07,0.65,0.07,1.24v14.69c0.01,2.81,0.06,5.02,0.14,6.65
		h1.95c0.14,0.3,0.21,0.63,0.21,0.98c0,0.32-0.06,0.53-0.19,0.65c-0.13,0.12-0.37,0.17-0.74,0.17h-6.98
		c-0.15-0.37-0.23-0.72-0.23-1.05c0-0.26,0.06-0.45,0.19-0.57s0.34-0.18,0.63-0.18h1.3C339.33,46.76,339.38,44.01,339.38,40.14z"/>
	<path class="st0" d="M362.13,43.14c0,2.35,0.09,3.8,0.28,4.33c0.19,0.54,0.56,0.78,1.12,0.72c0.14,0.28,0.21,0.56,0.21,0.82
		c0,0.43-0.33,0.77-1,1s-1.32,0.35-1.95,0.35c-0.41,0-0.71-0.08-0.9-0.25c-0.19-0.16-0.48-0.61-0.88-1.33
		c-0.94,0.54-1.9,0.97-2.9,1.28c-1,0.32-2.05,0.47-3.15,0.47c-1.45,0-2.58-0.4-3.38-1.2c-0.8-0.8-1.2-2.27-1.2-4.41
		c0-4.18-0.02-6.71-0.06-7.61s-0.14-1.51-0.29-1.85c-0.15-0.34-0.35-0.55-0.6-0.63c-0.25-0.08-0.52-0.12-0.81-0.12
		c-0.15-0.25-0.23-0.52-0.23-0.82c0-0.41,0.29-0.69,0.86-0.84c0.57-0.15,1.37-0.23,2.39-0.23c0.81,0,1.36,0.05,1.66,0.15
		c0.3,0.1,0.49,0.26,0.56,0.49s0.11,1,0.11,2.31v6.62c0,2.4,0.27,3.97,0.8,4.7s1.27,1.11,2.22,1.11c0.67,0,1.32-0.14,1.95-0.42
		s1.06-0.67,1.27-1.18c0.22-0.5,0.33-1.47,0.33-2.91c0-3.35-0.01-5.45-0.04-6.32s-0.11-1.48-0.25-1.85
		c-0.13-0.37-0.31-0.59-0.54-0.68c-0.22-0.08-0.51-0.12-0.86-0.12c-0.15-0.25-0.23-0.52-0.23-0.82c0-0.41,0.3-0.69,0.9-0.84
		c0.6-0.15,1.35-0.23,2.25-0.23c0.81,0,1.36,0.05,1.66,0.15c0.3,0.1,0.49,0.28,0.56,0.54c0.08,0.26,0.11,1.04,0.11,2.35V43.14z"/>
	<path class="st0" d="M366.53,33h1.19l1.42-4.98c0.49,0.15,0.91,0.33,1.25,0.54c0.34,0.21,0.6,0.46,0.76,0.75
		c0.16,0.29,0.25,1.28,0.25,2.97V33h5.77c0.14,0.39,0.21,0.8,0.21,1.23c0,0.34-0.06,0.56-0.19,0.68c-0.13,0.11-0.39,0.17-0.77,0.17
		h-5.02v8.3c0,1.98,0.18,3.28,0.54,3.9c0.36,0.63,0.91,0.96,1.64,0.99s1.63-0.21,2.69-0.72c0.26,0.38,0.39,0.81,0.39,1.26
		c0,0.62-0.34,1.04-1.03,1.25c-0.68,0.21-1.76,0.32-3.24,0.32c-1.6,0-2.77-0.33-3.5-0.98c-0.73-0.66-1.1-1.88-1.1-3.67V41.6
		c0-2.25-0.06-4.42-0.19-6.53h-1.72c-0.14-0.42-0.21-0.83-0.21-1.23c0-0.29,0.06-0.51,0.19-0.64C366.01,33.07,366.22,33,366.53,33z"
		/>
	<path class="st0" d="M385.82,48.39h1.86c0.15,0.3,0.23,0.63,0.23,0.98c0,0.32-0.06,0.53-0.19,0.65c-0.13,0.12-0.38,0.17-0.75,0.17
		h-6.9c-0.14-0.37-0.21-0.72-0.21-1.05c0-0.26,0.06-0.45,0.18-0.57s0.34-0.18,0.64-0.18h1.3c0.08-1.63,0.12-3.53,0.12-5.72
		c0-2.67-0.02-4.45-0.06-5.34c-0.04-0.9-0.14-1.51-0.29-1.85s-0.37-0.55-0.64-0.63c-0.27-0.08-0.62-0.12-1.03-0.12
		c-0.15-0.25-0.23-0.53-0.23-0.86c0-0.48,0.23-0.77,0.68-0.88c0.46-0.11,1.34-0.16,2.65-0.16c0.92,0,1.55,0.04,1.88,0.13
		s0.51,0.25,0.56,0.49s0.07,0.65,0.07,1.24v7.98C385.7,44.85,385.74,46.76,385.82,48.39z M383.33,29.82c-0.76,0-1.32-0.16-1.68-0.47
		s-0.54-0.77-0.54-1.37c0.01-0.64,0.25-1.16,0.7-1.54c0.46-0.39,1.1-0.58,1.93-0.58c0.82,0,1.4,0.17,1.75,0.5
		c0.35,0.33,0.53,0.78,0.53,1.34c0,0.63-0.22,1.14-0.65,1.54C384.93,29.63,384.26,29.82,383.33,29.82z"/>
	<path class="st0" d="M397.3,50.55c-2.54,0-4.4-0.67-5.6-2.02c-1.19-1.35-1.79-3.38-1.79-6.09c0-3.12,0.72-5.55,2.17-7.28
		c1.45-1.73,3.53-2.6,6.26-2.6c2.54,0,4.4,0.67,5.6,2.02s1.79,3.38,1.79,6.11c0,3.11-0.72,5.53-2.17,7.26
		C402.11,49.68,400.03,50.55,397.3,50.55z M397.97,48.19c1.33,0,2.3-0.5,2.9-1.51c0.6-1.01,0.89-2.56,0.89-4.65
		c0-2.41-0.31-4.2-0.92-5.37c-0.61-1.17-1.67-1.75-3.17-1.75c-1.33,0-2.3,0.5-2.9,1.51c-0.6,1.01-0.89,2.56-0.89,4.67
		c0,2.4,0.31,4.18,0.92,5.35C395.42,47.61,396.47,48.19,397.97,48.19z"/>
	<path class="st0" d="M412.99,34.89c1.16-0.77,2.3-1.34,3.43-1.7c1.13-0.36,2.14-0.54,3.03-0.54c1.56,0,2.73,0.36,3.52,1.08
		c0.79,0.72,1.18,2.09,1.18,4.11c0,6.29,0.09,9.63,0.27,10c0.18,0.38,0.6,0.56,1.25,0.54c0.13,0.34,0.19,0.68,0.19,1.02
		c0,0.32-0.1,0.53-0.3,0.63c-0.2,0.1-0.57,0.16-1.11,0.16c-1.63,0-2.62-0.02-2.98-0.06s-0.61-0.16-0.74-0.37
		c-0.13-0.2-0.19-0.55-0.19-1.03v-7.56c0-2.41-0.25-4.01-0.76-4.81s-1.33-1.19-2.47-1.19c-0.97,0-1.81,0.27-2.52,0.82
		s-1.06,1.54-1.06,2.97v3.7c0,2.07,0.04,3.98,0.12,5.72h1.95c0.14,0.3,0.21,0.63,0.21,0.98c0,0.32-0.06,0.53-0.19,0.65
		c-0.13,0.12-0.37,0.17-0.74,0.17h-6.9c-0.15-0.37-0.23-0.72-0.23-1.05c0-0.26,0.06-0.45,0.19-0.57c0.13-0.12,0.34-0.18,0.63-0.18
		h1.21c0.09-1.86,0.14-4.14,0.14-6.84c0-3.45-0.13-5.45-0.4-6c-0.27-0.55-0.78-0.83-1.54-0.83c-0.15-0.33-0.23-0.67-0.23-1.02
		c0-0.32,0.12-0.52,0.37-0.61c0.25-0.09,1.79-0.18,4.65-0.27C413.06,33.36,413.06,34.05,412.99,34.89z"/>
	<path class="st0" d="M436.34,32.56c1.54,0,2.77,0.15,3.68,0.45c0.91,0.3,1.36,0.78,1.36,1.45c0,0.69-0.29,1.38-0.88,2.05
		c-2.29-1.06-4.11-1.6-5.44-1.6c-0.9,0-1.58,0.17-2.03,0.51s-0.67,0.83-0.67,1.47c0,0.67,0.25,1.22,0.76,1.65s1.55,0.94,3.13,1.53
		c1.99,0.7,3.4,1.43,4.25,2.18c0.84,0.75,1.26,1.79,1.26,3.11c0,1.67-0.64,2.95-1.93,3.84c-1.29,0.89-3.12,1.33-5.49,1.33
		c-1.81,0-3.2-0.13-4.15-0.39c-0.95-0.26-1.43-0.79-1.43-1.61c0-0.6,0.23-1.18,0.68-1.76c2,0.94,3.86,1.4,5.58,1.4
		c1.08,0,1.88-0.18,2.4-0.53c0.53-0.35,0.79-0.91,0.79-1.68c0-0.83-0.4-1.49-1.2-1.97c-0.8-0.49-2.06-1.06-3.76-1.73
		c-1.68-0.64-2.85-1.32-3.49-2.04s-0.96-1.62-0.96-2.72c0-1.49,0.64-2.68,1.91-3.6C431.98,33.02,433.86,32.56,436.34,32.56z"/>
</g>
<g>
	<g>
		<line class="st1" x1="35.17" y1="20.22" x2="35.17" y2="22.8"/>
	</g>
	<g>
		<line class="st1" x1="17.5" y1="37.82" x2="20.08" y2="37.82"/>
	</g>
	<g>
		<line class="st1" x1="35.1" y1="55.49" x2="35.1" y2="52.92"/>
	</g>
	<g>
		<line class="st1" x1="52.77" y1="37.89" x2="50.19" y2="37.89"/>
	</g>
	<g>
		<linearGradient id="SVGID_1_" gradientUnits="userSpaceOnUse" x1="30.0098" y1="51.4683" x2="30.0098" y2="19.2542">
			<stop  offset="0" style="stop-color:#64B9AD"/>
			<stop  offset="0.2457" style="stop-color:#3EAFA0"/>
			<stop  offset="0.4845" style="stop-color:#00A796"/>
		</linearGradient>
		<path class="st2" d="M22.46,51.47l0.78-2.51c-2.69-2.91-4.35-6.79-4.35-11.06c0-8.99,7.32-16.31,16.31-16.31
			c2.16,0,4.22,0.43,6.11,1.2l2.15-1.57c-2.49-1.24-5.29-1.96-8.27-1.96c-10.28,0-18.64,8.36-18.64,18.64
			C16.56,43.25,18.83,48.07,22.46,51.47z"/>
		
			<linearGradient id="SVGID_00000161615638172721616890000013556273702089354122_" gradientUnits="userSpaceOnUse" x1="40.8132" y1="56.5404" x2="40.8132" y2="25.0597">
			<stop  offset="0" style="stop-color:#64B9AD"/>
			<stop  offset="0.2457" style="stop-color:#3EAFA0"/>
			<stop  offset="0.4845" style="stop-color:#00A796"/>
		</linearGradient>
		<path style="fill:url(#SVGID_00000161615638172721616890000013556273702089354122_);" d="M48.68,25.06l-0.8,2.6
			c2.27,2.8,3.63,6.36,3.63,10.24c0,8.99-7.32,16.31-16.31,16.31c-1.84,0-3.6-0.32-5.25-0.88l-2.16,1.67
			c2.27,0.99,4.78,1.55,7.41,1.55c10.28,0,18.64-8.36,18.64-18.64C53.84,32.92,51.87,28.41,48.68,25.06z"/>
	</g>
	<g>
		<polygon class="st4" points="29.63,34.2 49.12,18.53 41.35,42.31 		"/>
		
			<linearGradient id="SVGID_00000114791532518007349320000007272817184808395691_" gradientUnits="userSpaceOnUse" x1="21.8554" y1="38.2536" x2="49.1239" y2="38.2536">
			<stop  offset="0" style="stop-color:#9E67AB"/>
			<stop  offset="0.1828" style="stop-color:#925AA4"/>
			<stop  offset="0.4515" style="stop-color:#874B9D"/>
			<stop  offset="0.7225" style="stop-color:#814299"/>
			<stop  offset="0.9969" style="stop-color:#7F3F98"/>
		</linearGradient>
		<path style="fill:url(#SVGID_00000114791532518007349320000007272817184808395691_);" d="M49.12,18.53L29.63,34.2l0.06,0.04
			l-0.06-0.04l-7.77,23.78l19.5-15.67l0,0l0,0L49.12,18.53z M45.33,24.01L39.2,40.8l-7.54-5.21L45.33,24.01z"/>
	</g>
</g>
</svg>
