<?xml version="1.0" encoding="UTF-8"?>
<svg id="design" xmlns="http://www.w3.org/2000/svg" viewBox="0 0 759.69 84.51">
  <defs>
    <style>
      .cls-1 {
        fill: #231815;
      }
    </style>
  </defs>
  <g>
    <path class="cls-1" d="M41.41,14.86H15.21v17.43h24.57v13.1H15.21v34.39H0V1.75h41.41v13.1Z"/>
    <path class="cls-1" d="M139.83,40.83c0,23.75-17.08,40.71-41.65,40.71s-41.65-16.96-41.65-40.71S73.61,0,98.18,0s41.65,17.08,41.65,40.83ZM124.15,40.83c0-15.79-10.76-27.02-25.97-27.02s-25.97,11.23-25.97,27.02,10.76,26.91,25.97,26.91,25.97-11.11,25.97-26.91Z"/>
    <path class="cls-1" d="M194.16,19.54c-4.56-6.08-9.94-6.67-12.75-6.67-8.19,0-10.76,5.15-10.76,9.12,0,1.87.58,3.63,2.46,5.26,1.87,1.75,4.45,2.69,9.36,4.45,6.08,2.11,11.82,4.21,15.79,7.84,3.51,3.16,6.67,8.42,6.67,16.38,0,15.21-11,25.62-27.14,25.62-14.39,0-22.81-8.77-26.91-14.74l9.94-9.48c3.74,7.6,10.88,10.41,16.38,10.41,6.9,0,12.05-4.21,12.05-10.76,0-2.81-.94-5.03-3.04-7.02-2.92-2.69-7.6-4.21-12.05-5.73-4.09-1.4-9.01-3.28-12.98-6.79-2.57-2.22-6.2-6.55-6.2-14.51,0-11.46,7.72-22.93,25.04-22.93,4.91,0,14.15.94,22.11,9.12l-7.95,10.41Z"/>
    <path class="cls-1" d="M260.6,19.54c-4.56-6.08-9.94-6.67-12.75-6.67-8.19,0-10.76,5.15-10.76,9.12,0,1.87.58,3.63,2.46,5.26,1.87,1.75,4.45,2.69,9.36,4.45,6.08,2.11,11.82,4.21,15.79,7.84,3.51,3.16,6.67,8.42,6.67,16.38,0,15.21-11,25.62-27.14,25.62-14.39,0-22.81-8.77-26.91-14.74l9.94-9.48c3.74,7.6,10.88,10.41,16.38,10.41,6.9,0,12.05-4.21,12.05-10.76,0-2.81-.94-5.03-3.04-7.02-2.92-2.69-7.6-4.21-12.05-5.73-4.09-1.4-9.01-3.28-12.98-6.79-2.57-2.22-6.2-6.55-6.2-14.51,0-11.46,7.72-22.93,25.04-22.93,4.91,0,14.15.94,22.11,9.12l-7.95,10.41Z"/>
    <path class="cls-1" d="M334.91,52.88h9.13v12.17h-9.13v14.74h-14.27v-14.74h-38.14L321.22,1.75h13.69v51.12ZM320.64,52.88v-26.68l-16.33,26.68h16.33Z"/>
    <path class="cls-1" d="M403.49,36.83h30.35c0,10.2.03,23.77-10.73,34.41-8.07,8.07-18.02,10.29-27.73,10.29s-19.77-1.99-28.31-10.53c-2.69-2.69-11.58-12.52-11.58-30.06,0-15.09,6.79-24.33,11.46-29.01,5.85-5.97,15.68-11.93,30.77-11.93,5.85,0,12.05.94,18.02,4.09,4.07,2.08,8.45,5.54,12.14,10.51l-10.73,10.9c-2.69-5.26-6.67-7.95-9.13-9.24-3.28-1.64-7.37-2.46-11-2.46-6.2,0-13.22,2.22-18.02,6.9-4.45,4.33-7.84,11.82-7.84,20.59,0,10.41,4.45,16.61,7.72,19.77,3.51,3.39,9.01,6.67,17.31,6.67,11.97,0,21.57-6.56,22.12-17.8h-14.83v-13.1Z"/>
  </g>
  <g>
    <path class="cls-1" d="M479.6,72.1c.41-.48,3.1-3.55,3.93-4.79.62-.93,1.34-2.34,1.34-3.68,0-2.07-1.48-3.48-3.41-3.48-2.34,0-3.58,1.86-3.65,3.82h-4.61c.21-4.68,3.51-7.68,8.06-7.68,5.34,0,8.09,3.65,8.09,7.3s-2.38,6.09-4.17,8.02l-3.96,4.3h8.3v3.86h-16.67l6.75-7.68Z"/>
    <path class="cls-1" d="M553.96,68.32c0,6.99-5.03,11.98-12.26,11.98s-12.26-4.99-12.26-11.98,5.03-12.02,12.26-12.02,12.26,5.03,12.26,12.02ZM549.34,68.32c0-4.65-3.17-7.95-7.65-7.95s-7.64,3.31-7.64,7.95,3.17,7.92,7.64,7.92,7.65-3.27,7.65-7.92Z"/>
    <path class="cls-1" d="M598.97,72.1c.41-.48,3.1-3.55,3.93-4.79.62-.93,1.34-2.34,1.34-3.68,0-2.07-1.48-3.48-3.41-3.48-2.34,0-3.58,1.86-3.65,3.82h-4.61c.21-4.68,3.51-7.68,8.06-7.68,5.34,0,8.09,3.65,8.09,7.3s-2.38,6.09-4.17,8.02l-3.96,4.3h8.3v3.86h-16.67l6.75-7.68Z"/>
    <path class="cls-1" d="M661.59,57.95l-5.58,7.27c.69-.31,1.52-.55,2.51-.55,1.69,0,3.72.65,5.06,1.96,1.21,1.14,2.17,3.1,2.17,5.51,0,1.93-.55,3.86-2.1,5.54-1.96,2.13-4.2,2.62-6.54,2.62s-4.65-.45-6.54-2.34c-1.24-1.24-2.24-3-2.24-5.58,0-2.79,1.28-5.03,2.89-7.16l6.75-9.02,3.62,1.76ZM660.04,75.55c.55-.55,1.24-1.52,1.24-3.03,0-1.38-.48-2.41-1.27-3.17-.86-.83-1.83-1.1-2.96-1.1-1.34,0-2.24.45-3,1.24-.83.86-1.24,1.72-1.24,3s.41,2.31,1.27,3.1c.59.55,1.58,1.14,2.96,1.14s2.41-.59,2.99-1.17Z"/>
  </g>
  <g>
    <path class="cls-1" d="M475.5,11.48h12.28V1.75h2.66v23.94h-2.66v-11.7h-12.28v11.7h-2.66V1.75h2.66v9.73Z"/>
    <path class="cls-1" d="M513.08,1.75v23.94h-2.66V1.75h2.66Z"/>
    <path class="cls-1" d="M536.91,1.75c1.62,0,4.02.11,5.82,1.33,1.4.93,2.62,2.76,2.62,5.31,0,3.66-2.41,6.35-6.03,6.61l7.61,10.7h-3.23l-7.29-10.48h-.68v10.48h-2.66V1.75h3.84ZM535.73,12.85h1.69c3.3,0,5.28-1.58,5.28-4.38,0-1.33-.39-2.66-1.9-3.52-1.08-.61-2.3-.68-3.45-.68h-1.62v8.58Z"/>
    <path class="cls-1" d="M563.07,13.74c0-7.14,5.56-12.38,12.46-12.38s12.46,5.24,12.46,12.38-5.53,12.38-12.46,12.38-12.46-5.28-12.46-12.38Z"/>
    <path class="cls-1" d="M616.11,6.49c-.32-.65-.86-1.36-1.4-1.79-.47-.36-1.33-.83-2.69-.83-2.37,0-4.02,1.47-4.02,3.7,0,.93.25,1.47.9,2.08.72.72,1.62,1.11,2.51,1.51l2.3,1.01c1.4.61,2.69,1.26,3.7,2.26,1.22,1.22,1.72,2.62,1.72,4.34,0,4.42-3.27,7.36-7.57,7.36-1.58,0-3.55-.32-5.21-1.94-1.18-1.15-1.9-2.8-2.23-4.24l2.58-.72c.18,1.26.75,2.33,1.44,3.05,1.04,1.04,2.23,1.33,3.45,1.33,3.27,0,4.81-2.33,4.81-4.74,0-1.08-.32-2.01-1.18-2.8-.68-.65-1.62-1.08-2.87-1.65l-2.15-1c-.93-.43-2.12-.93-3.2-1.97-1.04-1.01-1.65-2.12-1.65-3.91,0-3.7,2.84-6.17,6.71-6.17,1.47,0,2.66.29,3.84,1.08.97.65,1.8,1.62,2.33,2.66l-2.12,1.4Z"/>
    <path class="cls-1" d="M639.93,11.48h12.28V1.75h2.66v23.94h-2.66v-11.7h-12.28v11.7h-2.66V1.75h2.66v9.73Z"/>
    <path class="cls-1" d="M677.69,1.75v23.94h-2.66V1.75h2.66Z"/>
    <path class="cls-1" d="M696.32,25.7l3.98-25.27,9.19,20.21,9.37-20.25,3.73,25.31h-2.73l-2.26-16.66-8.15,17.66-8.04-17.66-2.37,16.66h-2.73Z"/>
    <path class="cls-1" d="M753.94,18.95h-10.2l-2.87,6.75h-2.94l11.02-25.09,10.73,25.09h-2.94l-2.8-6.75ZM752.9,16.44l-4.02-9.58-4.09,9.58h8.11Z"/>
  </g>
  <g>
    <path class="cls-1" d="M733.76,72.37c-.52.11-1.42.34-2.39.72,4.04.71,6.5.56,7.19-.02.13-.11.17-.21.16-.37,0-.09-.04-.2-.21-.33-.51-.37-2.07-.6-4.75-.02Z"/>
    <path class="cls-1" d="M712.31,55.11h0s-.01.02-.01.02c-.94,1.16,2.47,6.98,13.03,16.33-.09-1-.18-1.98-.26-2.93-.1-1.05-.17-1.73-.17-1.73h.05c-.02-.25-.04-.52-.05-.76-.13-2.26.38-3.94,1.21-5.2-4.18-1.1-8.11-2.85-11.55-5.2-1.73-1.18-2.08-.72-2.24-.53Z"/>
    <path class="cls-1" d="M711.15,56.51c-1.98,2.39-5.98,7.21-7.44,8.99-.82,1-.57,2.46.81,4.71,1.66,2.72,6.63,8.16,10.47,11.87l9.17-10.12c-6.17-5.51-12.08-11.83-13.01-15.46Z"/>
    <path class="cls-1" d="M759.69,74.1l-3.72-11.32c-3.24,6.61-7.76,10.73-13.45,12.23-4.75,1.26-9.32.81-12.72-1.17-1.55.91-2.86,2.27-2.65,4.29,0,0,0,0,0,0,.13,1.36.95,2.64,2.38,3.69,3.31,2.44,9.14,3.32,14.52,2.19,6.66-1.4,11.64-4.55,15.64-9.92Z"/>
    <path class="cls-1" d="M726.04,65.98c.15,2.73.47,5.89.79,9.03,1.16-1.72,3.47-3.05,6.69-3.75,1.33-.29,3.59-.65,5.04-.11-.36-3.43-.96-8.76-1.17-10.71l-.06-.56c-.04-.35-.22-.66-.53-.9-.54-.43-1.46-.65-2.6-.65-.43,0-.9.03-1.39.1-3.26.43-7.08,2.09-6.76,7.57Z"/>
  </g>
</svg>