<?xml version="1.0" encoding="UTF-8"?>
<svg id="design" xmlns="http://www.w3.org/2000/svg" viewBox="0 0 286.84 179.35">
  <defs>
    <style>
      .cls-1 {
        fill: #d7000f;
      }

      .cls-2 {
        fill: #fff;
      }
    </style>
  </defs>
  <g>
    <path class="cls-2" d="M27.38,9.82H10.06v11.52h16.24v8.66H10.06v22.74H0V1.16h27.38v8.66Z"/>
    <path class="cls-2" d="M92.45,26.99c0,15.7-11.29,26.92-27.53,26.92s-27.53-11.22-27.53-26.92S48.67,0,64.91,0s27.53,11.29,27.53,26.99ZM82.08,26.99c0-10.44-7.12-17.87-17.17-17.87s-17.17,7.43-17.17,17.87,7.12,17.79,17.17,17.79,17.17-7.35,17.17-17.79Z"/>
    <path class="cls-2" d="M128.37,12.92c-3.02-4.02-6.57-4.41-8.43-4.41-5.41,0-7.12,3.4-7.12,6.03,0,1.24.39,2.4,1.62,3.48,1.24,1.16,2.94,1.78,6.19,2.94,4.02,1.39,7.81,2.78,10.44,5.18,2.32,2.09,4.41,5.57,4.41,10.83,0,10.05-7.27,16.94-17.94,16.94-9.51,0-15.08-5.8-17.79-9.75l6.57-6.26c2.48,5.03,7.19,6.88,10.83,6.88,4.56,0,7.97-2.78,7.97-7.12,0-1.86-.62-3.33-2.01-4.64-1.93-1.78-5.03-2.78-7.97-3.79-2.71-.93-5.96-2.17-8.58-4.49-1.7-1.47-4.1-4.33-4.1-9.59,0-7.58,5.11-15.16,16.55-15.16,3.25,0,9.36.62,14.62,6.03l-5.26,6.88Z"/>
    <path class="cls-2" d="M172.3,12.92c-3.02-4.02-6.57-4.41-8.43-4.41-5.41,0-7.12,3.4-7.12,6.03,0,1.24.39,2.4,1.62,3.48,1.24,1.16,2.94,1.78,6.19,2.94,4.02,1.39,7.81,2.78,10.44,5.18,2.32,2.09,4.41,5.57,4.41,10.83,0,10.05-7.27,16.94-17.94,16.94-9.51,0-15.08-5.8-17.79-9.75l6.57-6.26c2.48,5.03,7.19,6.88,10.83,6.88,4.56,0,7.97-2.78,7.97-7.12,0-1.86-.62-3.33-2.01-4.64-1.93-1.78-5.03-2.78-7.97-3.79-2.71-.93-5.96-2.17-8.58-4.49-1.7-1.47-4.1-4.33-4.1-9.59,0-7.58,5.11-15.16,16.55-15.16,3.25,0,9.36.62,14.62,6.03l-5.26,6.88Z"/>
    <path class="cls-2" d="M221.43,34.96h6.03v8.04h-6.03v9.75h-9.44v-9.75h-25.21L212.38,1.16h9.05v33.8ZM211.99,34.96v-17.64l-10.79,17.64h10.79Z"/>
    <path class="cls-2" d="M266.77,24.35h20.06c0,6.74.02,15.71-7.1,22.75-5.34,5.34-11.91,6.81-18.33,6.81s-13.07-1.31-18.72-6.96c-1.78-1.78-7.66-8.28-7.66-19.88,0-9.98,4.49-16.09,7.58-19.18,3.87-3.94,10.36-7.89,20.34-7.89,3.87,0,7.97.62,11.91,2.71,2.69,1.38,5.58,3.66,8.02,6.95l-7.1,7.21c-1.78-3.48-4.41-5.26-6.03-6.11-2.17-1.08-4.87-1.62-7.27-1.62-4.1,0-8.74,1.47-11.91,4.56-2.94,2.86-5.18,7.81-5.18,13.61,0,6.88,2.94,10.98,5.11,13.07,2.32,2.24,5.96,4.41,11.45,4.41,7.91,0,14.26-4.33,14.62-11.77h-9.8v-8.66Z"/>
  </g>
  <g>
    <path class="cls-2" d="M6.75,166.95c.41-.48,3.1-3.55,3.93-4.79.62-.93,1.34-2.34,1.34-3.68,0-2.07-1.48-3.48-3.41-3.48-2.34,0-3.58,1.86-3.65,3.82H.34c.21-4.68,3.51-7.68,8.06-7.68,5.34,0,8.09,3.65,8.09,7.3s-2.38,6.09-4.17,8.02l-3.96,4.3h8.3v3.86H0l6.75-7.68Z"/>
    <path class="cls-2" d="M81.11,163.16c0,6.99-5.03,11.98-12.26,11.98s-12.26-4.99-12.26-11.98,5.03-12.02,12.26-12.02,12.26,5.03,12.26,12.02ZM76.49,163.16c0-4.65-3.17-7.95-7.65-7.95s-7.64,3.31-7.64,7.95,3.17,7.92,7.64,7.92,7.65-3.27,7.65-7.92Z"/>
    <path class="cls-2" d="M126.13,166.95c.41-.48,3.1-3.55,3.93-4.79.62-.93,1.34-2.34,1.34-3.68,0-2.07-1.48-3.48-3.41-3.48-2.34,0-3.58,1.86-3.65,3.82h-4.61c.21-4.68,3.51-7.68,8.06-7.68,5.34,0,8.09,3.65,8.09,7.3s-2.38,6.09-4.17,8.02l-3.96,4.3h8.3v3.86h-16.67l6.75-7.68Z"/>
    <path class="cls-2" d="M188.75,152.79l-5.58,7.27c.69-.31,1.52-.55,2.51-.55,1.69,0,3.72.65,5.06,1.96,1.21,1.14,2.17,3.1,2.17,5.51,0,1.93-.55,3.86-2.1,5.54-1.96,2.13-4.2,2.62-6.54,2.62s-4.65-.45-6.54-2.34c-1.24-1.24-2.24-3-2.24-5.58,0-2.79,1.28-5.03,2.89-7.16l6.75-9.02,3.62,1.76ZM187.2,170.39c.55-.55,1.24-1.52,1.24-3.03,0-1.38-.48-2.41-1.27-3.17-.86-.83-1.83-1.1-2.96-1.1-1.34,0-2.24.45-3,1.24-.83.86-1.24,1.72-1.24,3s.41,2.31,1.27,3.1c.59.55,1.58,1.14,2.96,1.14s2.41-.59,2.99-1.17Z"/>
  </g>
  <g>
    <path class="cls-2" d="M2.66,99.92h12.28v-9.73h2.66v23.94h-2.66v-11.7H2.66v11.7H0v-23.94h2.66v9.73Z"/>
    <path class="cls-2" d="M40.24,90.2v23.94h-2.66v-23.94h2.66Z"/>
    <path class="cls-2" d="M64.07,90.2c1.62,0,4.02.11,5.82,1.33,1.4.93,2.62,2.76,2.62,5.31,0,3.66-2.41,6.35-6.03,6.61l7.61,10.7h-3.23l-7.29-10.48h-.68v10.48h-2.66v-23.94h3.84ZM62.88,101.29h1.69c3.3,0,5.28-1.58,5.28-4.38,0-1.33-.39-2.66-1.9-3.52-1.08-.61-2.3-.68-3.45-.68h-1.62v8.58Z"/>
    <path class="cls-1" d="M90.23,102.19c0-7.14,5.56-12.38,12.46-12.38s12.46,5.24,12.46,12.38-5.53,12.38-12.46,12.38-12.46-5.28-12.46-12.38Z"/>
    <path class="cls-2" d="M143.26,94.93c-.32-.65-.86-1.36-1.4-1.79-.47-.36-1.33-.83-2.69-.83-2.37,0-4.02,1.47-4.02,3.7,0,.93.25,1.47.9,2.08.72.72,1.62,1.11,2.51,1.51l2.3,1.01c1.4.61,2.69,1.26,3.7,2.26,1.22,1.22,1.72,2.62,1.72,4.34,0,4.42-3.27,7.36-7.57,7.36-1.58,0-3.55-.32-5.21-1.94-1.18-1.15-1.9-2.8-2.23-4.24l2.58-.72c.18,1.26.75,2.33,1.44,3.05,1.04,1.04,2.23,1.33,3.45,1.33,3.27,0,4.81-2.33,4.81-4.74,0-1.08-.32-2.01-1.18-2.8-.68-.65-1.62-1.08-2.87-1.65l-2.15-1c-.93-.43-2.12-.93-3.2-1.97-1.04-1.01-1.65-2.12-1.65-3.91,0-3.7,2.84-6.17,6.71-6.17,1.47,0,2.66.29,3.84,1.08.97.65,1.8,1.62,2.33,2.66l-2.12,1.4Z"/>
    <path class="cls-2" d="M167.09,99.92h12.28v-9.73h2.66v23.94h-2.66v-11.7h-12.28v11.7h-2.66v-23.94h2.66v9.73Z"/>
    <path class="cls-2" d="M204.85,90.2v23.94h-2.66v-23.94h2.66Z"/>
    <path class="cls-2" d="M223.47,114.14l3.98-25.27,9.19,20.21,9.37-20.25,3.73,25.31h-2.73l-2.26-16.66-8.15,17.66-8.04-17.66-2.37,16.66h-2.73Z"/>
    <path class="cls-2" d="M281.09,107.39h-10.2l-2.87,6.75h-2.94l11.02-25.09,10.73,25.09h-2.94l-2.8-6.75ZM280.05,104.88l-4.02-9.58-4.09,9.58h8.11Z"/>
  </g>
  <g>
    <path class="cls-1" d="M260.91,167.21c-.52.11-1.42.34-2.39.72,4.04.71,6.5.56,7.19-.02.13-.11.17-.21.16-.37,0-.09-.04-.2-.21-.33-.51-.37-2.07-.6-4.75-.02Z"/>
    <path class="cls-1" d="M239.46,149.95h0s-.01.02-.01.02c-.94,1.16,2.47,6.98,13.03,16.33-.09-1-.18-1.98-.26-2.93-.1-1.05-.17-1.73-.17-1.73h.05c-.02-.25-.04-.52-.05-.76-.13-2.26.38-3.94,1.21-5.2-4.18-1.1-8.11-2.85-11.55-5.2-1.73-1.18-2.08-.72-2.24-.53Z"/>
    <path class="cls-1" d="M238.3,151.35c-1.98,2.39-5.98,7.21-7.44,8.99-.82,1-.57,2.46.81,4.71,1.66,2.72,6.63,8.16,10.47,11.87l9.17-10.12c-6.17-5.51-12.08-11.83-13.01-15.46Z"/>
    <path class="cls-1" d="M286.84,168.94l-3.72-11.32c-3.24,6.61-7.76,10.73-13.45,12.23-4.75,1.26-9.32.81-12.72-1.17-1.55.91-2.86,2.27-2.65,4.29,0,0,0,0,0,0,.13,1.36.95,2.64,2.38,3.69,3.31,2.44,9.14,3.32,14.52,2.19,6.66-1.4,11.64-4.55,15.64-9.92Z"/>
    <path class="cls-1" d="M253.19,160.82c.15,2.73.47,5.89.79,9.03,1.16-1.72,3.47-3.05,6.69-3.75,1.33-.29,3.59-.65,5.04-.11-.36-3.43-.96-8.76-1.17-10.71l-.06-.56c-.04-.35-.22-.66-.53-.9-.54-.43-1.46-.65-2.6-.65-.43,0-.9.03-1.39.1-3.26.43-7.08,2.09-6.76,7.57Z"/>
  </g>
</svg>